<?xml version="1.0" standalone="no"?>
<!DOCTYPE svg PUBLIC "-//W3C//DTD SVG 1.1//EN" "http://www.w3.org/Graphics/SVG/1.1/DTD/svg11.dtd" >
<svg xmlns="http://www.w3.org/2000/svg">
<metadata>Generated by IcoMoon</metadata>
<defs>
<font id="superpups-icons" horiz-adv-x="1024">
<font-face units-per-em="1024" ascent="960" descent="-64" />
<missing-glyph horiz-adv-x="1024" />
<glyph unicode="&#x20;" d="" horiz-adv-x="512" />
<glyph unicode="&#xe600;" d="M352.4 150.512c0 0-4.992-1.184-15.632-2.288-0.192-1.168-0.576-1.776-0.576-1.776l16.208 4.064zM845.456 228.656c-15.728 11.808-24.912 52.448-22.944 80.64s-0.656 60.976-12.464 66.864 76.704 37.376 63.6 147.504c0 0-22.944-95.712-105.552-115.392-32.784 17.040-70.8 15.728-102.928 13.12-32.128-2.624-197.664 18.352-229.136 180.624s56.384 327.792 60.64 328.128c0 0-33.44 0-64.912-24.912 0 0-0.656 30.16-4.592 38.016-3.936 7.872-67.52-49.168-79.328-73.424-10.496-14.416-79.984 36.064-129.808-30.816 0 0-14.416-47.2-76.048-47.2s-86.544 9.184-53.76-61.632c32.784-70.8 179.632-65.232 212.080-64.256s-44.256-87.52-57.040-123.904c-19.344-37.696-85.552-180.944 84.576-286.16 6.88-8.848 11.472-99.328 12.128-117.024s13.76-47.2-43.92-68.832c0 0-35.408-15.072-38.032-37.376-2.624-22.288 76.704-14.416 80.64-13.76s-19.008-28.192 69.488-26.88c88.512 1.312 60.32 30.16 58.352 39.328-1.968 9.184-23.6 203.232 39.984 215.696 63.6 12.464 108.832 17.696 173.728-26.88 64.912-44.576 66.208-42.608 65.552-95.056s-14.416-58.352-53.104-59.664c-38.672-1.312-41.952-26.88-41.296-32.128s49.824-11.808 74.080-11.152c0 0-34.096-36.064 3.936-36.064s105.552-16.384 105.552 42.608 22.944 148.816 31.472 151.44c8.56 2.656-5.2 36.752-20.944 48.544zM425.232 102.128c-1.968-51.136-39.984-54.416-39.984-54.416-13.12 77.36 8.512 180.288 8.512 180.288s3.104 8.304 9.36 2.624c11.328-14.416 24.080-77.36 22.112-128.496zM805.792 75.904c-0.656-27.856-27.856-43.92-29.824-39.008s-2.944 32.784 0 62.608c2.944 29.824 19.008 64.912 19.008 64.912s2.56 3.264 4.912 0c9.84-14.432 6.56-60.64 5.904-88.512z" />
<glyph unicode="&#xe601;" d="M774 806c0 0 32 52-4 90l-29.328-84c0 0-44-38.672-68.672-77.328s-110.672-111.328-226-132c-170.672-32-185.328 31.328-294.672 7.328 0 0-42 121.328-66 118.672-24-2.672 22.672-143.328 23.328-150.672 0.672-7.328-54.672-106 1.328-228 38.016-74-12.656-82.672-21.984-130.672-2.672-22-1.328-104 38.672-178 21.328-50 48-32 48-32s8.672 9.328-15.328 90 14.672 144.672 23.328 157.328c0 0 10 22 8 25.328s10.672-2 2.672-50.672c-8-48.672 27.328-174 69.328-190 0 0 10-4.672 18.672-0.672 0 0 7.664 8.336-8.336 65.328s-40.992 155.008 6 199.008c0 0 37.008 52 27.008 111.008 84.992-3.008 72.992-59.008 262.992-66 3.664-8.672-2.336-202 9.664-234s43.328-114.704 74.672-114.704c31.328 0-24 118.704-25.328 150.704s6 185.328 24.672 180.672c18.672-4.672-24.672-254 65.328-290.672 44-15.328-13.328 37.328-7.328 216.672-2 36.672 33.328 160 34.672 184 1.328 24-8 91.328-9.328 101.328s4 98.672 62 102c39.328 0 43.328-28 90-22.672s55.328 58.672 51.328 71.328c5.376 12 10.672 26.672-14 24.672s-56-8.672-105.328 61.328c-25.552 31.28-46.032 25.36-46.032 25.36z" />
<glyph unicode="&#xe602;" d="M163.056 70.672c72.416 0 43.92 68.864 15.44 85.472-28.496 46.304 67.664 92.592 84.288 106.848s74.784 46.304 71.232 111.6c-1.184 27.312 127.024-29.68 167.392-36.8s124.656-5.936 138.896 9.504c14.24 15.44-32.048-235.056 51.040-251.68 83.104-16.624 123.472 15.44 103.28 48.672-20.176 33.248-65.296 24.928-41.552 115.152s1.184 93.792 0 98.544c-1.184 4.752 125.84 129.408 128.208 187.568 2.368 58.176-18.992 154.336 55.792 185.2s56.992 71.232 54.608 81.92c-2.368 10.688-83.104 8.304-83.104 8.304s-8.304 39.184-67.664 39.184l-11.856 42.72-23.744-24.928-11.872 32.048c0 0-116.336-147.216-153.152-216.064-36.8-68.864-229.12-87.856-255.248-87.856s-151.952 10.688-105.664 74.784c27.392 20.208 66.48-41.552 70.048-51.040 3.568-9.504 106.848-23.744 55.792 94.976-51.040 118.72-211.312 128.208-261.184 34.432-49.856-93.792 26.112-223.184 34.432-230.304 0 0-99.728-97.344-22.56-208.944 17.6-29.248-45.12-64.112-56.992-92.592s-8.272-156.72 64.144-156.72z" />
<glyph unicode="&#xe603;" d="M749.456 511.168c62.432-18.016 124.88 63.632 92.448 177.712-32.416 114.064-151.296 98.464-171.696 84.048 0 0-117.664 49.232-186.704-5.408 0 0-82.848 81.040-180.112-99.056 0 0-34.224-180.112 108.064-149.488 82.848 30.624-28.816 118.864 21.616 183.712 0 0 14.416-91.856 50.432-122.48 0 0-50.432-57.632 16.208-95.456 0 0-25.216-91.856-127.872-142.288s-66.656-147.696-72.048-163.904c0 0-131.472-59.44-126.064 75.648 0 0-34.224-176.512 149.488-142.288 0 0-4.32-16.208 12.24-18.016 16.576-1.808 214.688 0 214.688 0s63.040 9.008 0 70.24c0 0 33.328 25.216 32.416 39.632l0.016-104.464c0 0 77.424-8.112 90.928 0.896s14.416 36.016-16.208 43.232 29.168 289.696-12.864 331.728c0 0 53.376 33.6 29.36 96.032 0 0 50.432 60.032 34.816 150.096 56.464-73.248-37.184-171.712 40.848-210.128z" />
<glyph unicode="&#xe604;" d="M136.048 120.544c0 0 43.968-6.496 43.968 12.496s-60.448 11.984-29.472 57.952c30.752 45.632 147.904 73.776 162.080 161.424 0.112 0.64 0.208 1.296 0.304 1.952 5.984 24.496 38.224-59.2 29.984-87.68s-0.752-69.696 20.24-92.176c20.992-22.48 63.696-84.688 83.936-44.208 19.488 32.976-81.68 41.968-56.208 117.664 13.488 23.232 44.96 56.96 52.464 146.88 35.968-40.464 117.664-64.448 170.864-56.208 14.768-8.512-32.224-210.592-0.752-217.328 31.472-6.752 59.2-11.248 59.2 9.744 0 0-2.256 18.736-29.232 19.488 0 0-8.24 24.736 3.744 31.472 11.984 6.752 10.496-35.216 35.968-46.464s42.72-9.744 42.72 11.248c0 20.992-49.456 13.488-50.96 61.456s16.24 103.664 39.216 139.136 61.952 134.4 55.952 198.848 71.952 50.96 86.928 47.968c14.992-2.992 92.928-7.488 92.928 38.976 0 0 6 44.96-43.472 44.96 0 0-20.976 11.984-23.984 31.472-2.992 19.488-16.48 29.984-26.976 31.472l2.624 61.456-38.592-41.6 8.992 55.056c0 0-131.904-206.848-304.272-241.312-172.368-34.48-328.24-31.472-344.736-31.472s-22.48-17.984-11.984-25.472c10.496-7.488 80.944 2.992 79.44-11.984s-59.952-59.952-52.464-122.912-19.44-56.96-32.192-77.936c-26.752-37.488-89.2-184.368-26.256-184.368z" />
<glyph unicode="&#xe605;" d="M960.288 674.544c8.176 24.176 4.784 78.432-33.12 90.144-8.448 2.608-14.752 9.344-13.472 18.080l8.752 59.888c1.28 8.752-2.48 10.496-8.384 3.936l-34.208-38.080c-5.904-6.576-11.264-4.768-11.968 4.048l-2.176 27.184c-0.704 8.816-3.664 9.184-7.12 1.040-22.16-52.208-110.064-223.68-308.544-223.68-234.112 0-365.664-8.912-363.44 60.208 1.68 51.936 43.792 20.176 64.64 1.168 6.528-5.952 14.8-4.8 17.792 3.504 10.8 30.032 22.416 95.664-82.448 95.664-135.984 0-64.64-182.832-46.8-202.896 17.152-19.28-27.504-94.192 56.112-191.056 5.776-6.688 14.8-17.776 18.944-25.568 36.576-68.752-12.8-102.8-22.016-122.64-12.304-26.496-17.392-66.096 41.696-118.496 15.984-16 65.312-14.256 86.496-14.256 9.728 0 23.728 43.856-30 48.112-8.816 0.704-23.248 0.768-31.536 3.84-23.968 8.88-29.232 29.456-27.168 51.056 2.208 23.232 22.848 52.4 45.712 71.344 10.128 9.744 2.816-96.032 47.152-112.944 14.688-5.6 26.56-8.336 42.016-6.304 8.768 1.152 28.304 7.552 22.752 14.416-10.368 12.848-69.744 34.032-76.24 121.744-0.656 8.816 5.648 19.552 12.72 24.848 16.8 12.576 45.616 38.896 63.168 81.456 3.376 8.176 11.2 10.672 18.608 5.872 27.088-17.568 94.048-54.512 181.584-57.568 8.832-0.304 14.48-7.184 13.088-15.904-7.264-45.328-19.632-173.792 70.56-187.152 8.736-1.296 16.656-8.592 21.568-15.936 7.28-10.848 23.952-23.696 62.112-23.68 66.048 0.016 26.752 32.624 2.512 44.336-24.256 11.712-68.56 89.472-6.688 193.152 0 0 58.528 90.304 51.84 158.864s65.216 81.936 100.336 83.616c35.12 1.68 70.656 9.616 70.656 43.472-0.032 33.888-24.688 18-15.488 45.168zM665.968 350.128c-10.032-99.776 10.032-164.72 10.032-164.72-69.408 61.888-10.032 164.72-10.032 164.72z" />
<glyph unicode="&#xe606;" d="M96.048 244.48c0 0-40.88-165.36 113.344-165.36 154.208 0 170.928 57.6 170.928 57.6s39.024-42.736 65.024-48.304c26.016-5.568 258.256-1.856 258.256-1.856s42.736 59.456-91.040 68.752c0 0 40.88 65.024 26.016 111.488l33.44 5.568c0 0 55.744-148.64 92.896-182.080l76.176-1.856c0 0 24.16 11.152-37.168 57.6-61.312 46.448-48.304 196.944-37.168 245.248 11.152 48.304 13.008 165.36-3.712 221.104s0 9.296 0 9.296 105.904-26.016 126.336 39.024c0 0 26.016 11.152 20.432 35.296 0 0-83.616 37.152-98.48 44.592 0 0-11.152 33.216-43.2 45.056 0 0 10.912 46.224-3.248 53.424 0 0-50.16-31.584-53.888-40.88 0 0-3.712 53.888-13.008 63.168 0 0-63.168-40.88-59.456-98.48 0 0-89.184-133.776-78.032-222.96 0 0-300.992-111.472-226.672-343.728 0.048-0.016-115.152-52.048-237.776 48.288z" />
<glyph unicode="&#xe607;" d="M931.264 719.152c-22.864 61.312-86.256 57.152-102.88 56.112l-52.48 9.488 25.712-32.544c0 0-100.144-172.144-252.912-172.144s-385.216 37.856-385.216-142.976c0 0-0.096-41.872 31.072-80.832 0 0 12.416-57.568-93.568-121.472-16.368-24.16 6.208-99.712 6.208-139.456s48.304-66.224 67.008-29.584c18.704 36.624-37.424-10.112-37.424 127.056 18.704 7.792 102.88 96.656 115.344 115.36 8.4 3.328 31.168-32.736 32.736-67.024 0 0 31.168 54.56-16.112 82.096 15.072 20.784 9.36 17.664 17.664 36.896 8.32 19.232 48.32-58.192 13.504-125.744-21.824-38.448 3.632-69.104 13.504-90.416 9.872-21.296 34.288-69.104 64.432-69.104s29.104 22.864 28.064 28.064c0.512 23.376-78.464-1.040-78.464 89.376 0 54.56 75.856 19.232 105.472 214.080 77.936-57.68 107.552-85.728 182.384-87.296l8.32-228.096c0 0 4.16-33.776 47.808-33.776s5.2 34.288-9.36 51.952c-14.544 17.664-20.784 161.072-8.32 162.112s12.464-106 16.624-133.008c4.16-27.024 6.24-63.392 39.488-64.432s22.864 31.168-4.16 43.648c-27.024 12.464-13.504 183.936-7.28 201.6s91.456 3.12 91.456 201.6c2.080 117.424 113.264 138.208 140.288 115.344 17.664-7.28 73.776-16.624 65.472 32.208-0.992 32.208-41.52-10.4-64.384 50.912z" />
<glyph unicode="&#xe608;" d="M278.992 412.496c0 0-102 28-86 142 4.496 60.992 62.496 64.496 63.504 80.496s-117.504-9.504-113.504-111.248 89.008-137.744 98-142.752c9.008-4.992-12-31.664-20-44s-30.336-76.336-22.336-122.672c-0.048-9.76-87.328-19.008-71.008-52.992 18.336-41.328 42-126 93.328-121.328s32.336 54.336-7.328 52.672c-39.664-1.664-39.328 57.664-20 65.328s58.336 24.336 66.336 52 39.008 49.328 76 36.992 59.664-19.008 40.992-75.328c-18.672-56.336-23.328-54 19.328-76.336 42.672-22.336 139.664-49.328 127.664-6.672-12 42.672-36.336 32.336-48.672 30s-61.664-6.672-46 46.672c15.664 53.328 14.672 134.672 11.328 154.672-3.328 20 16.992 0.992 50.672 12.992 33.664 12 90.672 34.672 91.664 36.992 1.008 2.336-8.336-118.672 23.008-118.672s30.672 56 34.672 134.672c4 47.328 31.328-4 58.672 3.328 27.328 7.328 98 42 140.672-8s73.168-74 91.92-48c18.752 26-9.92 57.328-37.248 63.328s-29.328 42-84.672 56.672-97.328-2-98 79.328-43.328 86.8-51.328 106.736c-8 19.936-21.328 65.264 58 76.592s76 20 76 25.328c0 5.328-63.328-6-70.672 20-2.672 18 79.328 29.328 72 88.672-8.704 21.264-63.328-8.672-71.328-12-27.168-6.496-8.16 23.008-42.16 18s-72.496-44.992-102.496-32-50 22-43.008-4c0 0-6.992-2-16.496-6.496s24.992-35.008 28.992-40.496 19.168-83.664-14.16-127.008c-33.328-43.328-88.672-142-163.328-180.672-57.328-23.968-78.672-42.96-93.008-52.8z" />
<glyph unicode="&#xe609;" d="M965.328 731.296l-101.472 0.288c0 0 4.56 45.616-38.768 57.008 0 0-29.648 43.328-86.656 22.8 0 0-63.856 41.040-86.656-15.968 0 0-72.976-20.528-54.736-63.856 0 0-34.208-2.288-31.92-29.648 0 0-45.616 59.296-79.808 0 0 0-57.008 38.768-72.976-9.12 0 0-41.040-2.288-31.92-31.92 0 0-36.48-18.24-15.968-41.040 0 0-26.208-11.408-6.256-45.616 0 0-30.224 13.68-21.104-27.36 0 0-54.736 4.56-59.296-27.36l-27.36 15.968c0 0 43.328 13.68 31.92 47.888 0 0-4.56 43.328-31.92 47.888 0 0-43.328 43.328-77.536 11.408 0 0-57.008-13.68-41.040-50.176 0 0-13.68-59.296 29.648-72.976 0 0 29.648-38.768 59.296-11.408l20.528-25.088c0 0-36.48-9.12-31.92-61.568 0 0-25.088-25.088-9.12-52.448 0 0-2.288-52.448 34.208-59.296 0 0-2.288-4.56-2.288-20.528 0 0-57.008 20.528-52.448-20.528 0 0-38.768-43.328 29.648-66.128 0 0 6.848-13.936-11.408-17.232 0 0-53.584 9.824-50.176-34.656 0 0-15.392-27.36 10.256-49.6 0 0 25.648-25.648 51.312-49.6 25.648-23.952 92.352 3.424 39.344 39.344 0 0 22.24 8.544 18.816 44.464 0 0 22.24-15.392 73.536-20.528s25.648 27.36 5.136 37.632c0 0 18.816 66.704-25.648 73.536 0 0 64.992 17.104 73.536 76.96 0 0 140.24-53.024 215.504-44.464 0 0 14.256-25.648-12.544-47.888 0 0-28.512-15.392-14.816-42.752 0 0-13.68-17.104 5.136-44.464 0 0 8.544-35.92 35.92-53.024 0 0 11.568-8.8 44.064-39.584s70.528-8.304 72.24 5.392-22.8 34.784-36.48 39.904c-13.68 5.136 8.736 12.672 15.584 0.704s42.832-44.672 72-31.328c34 19.328-26.672 48.672-26.672 48.672s-22.144 13.888-6.192 27.568 9.12 120.864-42.192 118.576c0 0-5.696 23.952 29.648 25.088s81.52 51.312 81.52 121.44c0 0 80.384-11.968 90.64 18.816 0 0 20.528 8.544 18.816 30.784 0 0 13.68 41.040-8.544 61.568 0 0 18.816 41.040-29.072 59.856 0 0-18.816 39.344-54.736 34.208 0 0 0 30.784 34.208 30.784 0 0 73.536-6.848 73.536 25.648 0 0 22.352 24.656 39.344 44.464-0.032 0.016 29.472 37.2-25.696 38.496z" />
<glyph unicode="&#xe60a;" d="M69.12 79.12c-2.784-8.384 1.92-15.12 10.752-15.12h64.128c8.832 0 16.112 7.68 11.184 15.008-4.736 7.056-14.064 14.448-32.512 16.992-18.672 66.672 20.080 80.528 81.328 114.672-1.328-30.672 33.328-40 66.672-46.672s51.728-30.704 56-56c5.84-34.496 36-26.672 50.672-26.672s20.208 62.096 0 76c-10.672 7.328-90.672 8-112 68s41.328 96 61.328 97.328c20 1.328 150.672-97.328 246.672-40 26.8 12.976 26.672-66 15.328-82.672-11.328-16.672-3.568-40 7.216-60s-0.544-81.328 6.784-86c5.504-3.504 64.864-1.744 94.016-0.656 8.832 0.336 14.624 7.888 10.048 15.44-6.64 10.96-20.144 23.232-46.736 18.544-36 10.016-14.672 104.688-12 123.36s33.328 88 33.328 104 10.672-30.080 122.672 53.632c49.328 19.696 56-14.96 69.328-22.96 10.496-6.288 55.632-13.408 75.712-3.824 7.968 3.808 3.568 15.68-3.216 21.344-40.656 33.888-61.584 86.976-85.824 65.152-26.672-24-129.328-45.328-168-10.672-21.328 18.672 61.328 188 73.328 193.328s181.328 2.672 193.328 74 20 100.672-36 91.328c-104-9.328-104 81.328-230.672 58.672 0 0-49.328 29.328-73.328 13.328-17.584-11.728-47.36-54.96-62-77.232-4.864-7.376-2.432-16.96 5.264-21.328l56.736-32.112c0 0 18.672-64-10.672-102.672s-136-126.672-322.672-96c0 0-64 5.328-93.328-12 0 0-97.328 18.672-118.672 178 0 0-56-126.336 78.672-220.992 0 0-30-37.84-19.328-109.84s-17.008-110.256-42.336-124.912c-24.4-14.128 21.856-20.448-21.2-149.792z" />
<glyph unicode="&#xe60b;" d="M912.288 488.64c-64.704-153.824-140.56-156.48-140.56-156.48-46.144 41.376-178.224 243.456-192.544 273.696s-38.192 186.976-25.456 185.376c12.736-1.584 16.704-48.528 16.704-48.528 10.336 4.768 66.032 42.16 66.032 42.16-61.264 112.976-107.152 61.264-107.152 61.264s-19.088 43.488-55.168 37.136c-111.392-26.528-106.080 11.664-123.056 14.848s-59.408-23.344-25.456-93.36c33.952-70.016 112.448-54.096 138.976-122 26.528-67.888-24.4-84.864-28.64-84.864s-49.856 42.432-59.408 66.832c-8.64 22.064-32.88 6.832-80.592 1.36-8.784-1.008-12.016-7.44-5.616-13.52 33.088-31.392 71.584-15.504 71.584-15.504s29.2-25.312 35.552-46.544c-73.2-23.344-139.76 60.416-139.76 60.416-16.976 14.288-51.248-2.256-80.656-7.84-8.688-1.648-13.024-8.4-7.44-15.248 27.776-34.048 80.992-24.48 83.84-24.656 7.792-0.48 42.144 7.616 76.384-40.32 42.432-59.408 92.288-38.192 92.288-38.192-37.136-157.008 74.256-161.52 105.296-175.84s151.968-62.064 128.096-77.968c-97.856-74.784-46.944-108.208-37.392-115.36s50.912-7.952 53.312-43.76c2.384-35.808-34.208-93.088-47.744-90.704s-17.504 24.672-35.808-3.184c-18.304-27.84 14.32-26.256 35.008-32.624s43.76-4.768 45.344 34.208c57.28-16.704 77.168-5.568 80.352 15.12s28.64 68.432 42.96 81.152c14.32 12.736 27.056 29.44 21.488 34.208s-56.496 50.912-44.56 69.216c31.024 25.456 20.688 76.384 20.688 76.384 110.384 57.328 123.104 193.12 123.104 193.12zM754.752 106.208c-2.896-12.24-28.608-67.696-39.216-59.488-22.736 15.264-29.488 7.504-28.144 12.816 2.304 9.104 41.376 48.8 42.432 59.936s-36.592 18.56-50.384 39.248 22.272 34.48 22.272 34.48 1.904 1.168 2.128 0c1.552-8.368 18.56-28.64 40.848-40.848 22.272-12.192 13.856-30.128 10.064-46.144z" />
<glyph unicode="&#xe60c;" d="M199.072 346.864c0 0-32.048-56.816-32.048-88.864s21.12-47.344 53.904-46.624c0 0 12.384 18.208-15.296 26.224s35.696 58.272 53.904 63.376c18.208 5.104 15.296-101.984 75.76-101.984s30.592 32.048 11.648 36.416c-18.944 4.368-59.728 34.24 5.824 70.656s67.744 73.568 163.888 29.136c51.712-29.136 107.072-29.136 115.824-26.944 8.736 2.192 17.488-50.256 12.384-72.112s61.92-56.080 72.112-23.312c0 0 2.912 15.296-28.416 19.664s-2.912 32.784 2.912 36.416c5.824 3.648 13.104-45.168 67.008-45.168 43.712 28.416-69.92 59.728-32.048 91.056s77.936 66.288 67.744 158.064c-1.456 52.448 59.728 58.272 65.552 55.36s88.864-11.648 90.32 26.224-33.504 16.032-90.32 78.672-138.4-10.192-160.256-23.312c-21.856-13.104-68.464-67.008-134.032-46.624-31.968-9.232-17.488-49.536 17.488-50.992s-36.416-39.328-131.12-20.4c-94.688 18.944-208.32-26.224-238.912-87.408s-128.208-112.176-146.416-105.616c0.016 0.032 71.408-31.296 132.592 48.096z" />
<glyph unicode="&#xe60d;" d="M833.085 737.802c0-61.107-49.537-110.643-110.643-110.643s-110.643 49.537-110.643 110.643c0 61.107 49.537 110.643 110.643 110.643s110.643-49.537 110.643-110.643zM571.884 367.555c0 19.057-15.462 34.529-34.529 34.529h-64.645l-19.128 98.376-38.472-7.547c-2.284-0.225-4.475-0.645-6.605-1.311l-30.239-5.929c-1.802 8.735-6.83 16.241-13.66 21.504l88.146 16.445c0 0-0.102 31.805 3.011 32.86 4.311 1.495 8.643 3.011 12.964 4.485 12.616 4.372 23.695 11.203 33.014 20.849 15.862 16.384 25.119 41.329 8.243 62.884-15.483 19.773-73.37-6.943-80.681-6.861-21.617 0.266-37.243 9.462-58.757 6.748-3.748-0.471-7.547-0.942-11.213-1.792-2.191-0.512-3.543-0.010-4.823 1.72-4.393 5.888-8.786 11.745-13.302 17.531-8.1 10.353-18.944 16.548-31.908 15.114-5.212-0.563-27.372-7.24-10.67-38.789 3.625-6.851 6.717-14.152 8.735-21.617l4.905-27.853c-3.011 0.696-6.113 1.167-9.339 1.167-22.487 0-40.776-18.289-40.776-40.776 0-22.477 18.289-40.765 40.776-40.765 8.243 0 15.892 2.488 22.323 6.717l0.778-4.434c-11.94-6.031-20.224-18.289-20.224-32.563 0-6.523 1.853-12.575 4.854-17.869l-6.81-9.994c-4.188 4.157-9.953 6.748-16.312 6.748-12.759 0-23.142-10.394-23.142-23.163 0-9.452 5.714-17.582 13.865-21.156l-7.311-10.742h-233.277c-19.077 0-34.54-15.473-34.54-34.529 0-19.067 15.462-34.529 34.54-34.529h0.42c-4.874-11.674-7.578-24.453-7.578-37.857v-95.693c0-54.405 44.268-98.673 98.662-98.673h316.672c54.405 0 98.673 44.268 98.673 98.673v95.693c0 13.414-2.714 26.194-7.588 37.857h0.42c19.067 0 34.529 15.462 34.529 34.54zM287.549 426.322c-4.219 0-7.66 3.441-7.66 7.66 0 4.229 3.43 7.66 7.66 7.66s7.66-3.43 7.66-7.66c0-4.219-3.441-7.66-7.66-7.66zM302.93 524.001c-13.947 0-25.293 11.346-25.293 25.293s11.346 25.303 25.293 25.303c13.937 0 25.283-11.346 25.283-25.303 0-13.947-11.346-25.293-25.283-25.293zM342.405 457.144c-11.643 0-21.125 9.462-21.125 21.115 0 11.643 9.472 21.125 21.125 21.125s21.125-9.482 21.125-21.125c0-11.663-9.472-21.115-21.125-21.115zM418.253 441.733c-9.923 0-18.002 8.069-18.002 18.002 0 9.943 8.079 18.012 18.002 18.012 9.933 0 18.002-8.069 18.002-18.012 0.010-9.933-8.069-18.002-18.002-18.002zM178.616 512.512c20.285 0 36.792 16.486 36.792 36.782s-16.507 36.792-36.792 36.792-36.792-16.486-36.792-36.792c0-20.296 16.507-36.782 36.792-36.782zM178.616 570.604c11.735 0 21.299-9.564 21.299-21.309 0-11.735-9.564-21.299-21.299-21.299-11.745 0-21.309 9.564-21.309 21.299 0.010 11.745 9.564 21.309 21.309 21.309zM988.375 149.842l-102.994 43.622 47.811 83.907c9.748 16.599 8.55 39.875 6.339 50.248l-51.169 238.828c-9.544 44.493-54.661 65.853-92.959 66.97l-0.328-0.041c0 0-13.496-0.072-25.149-2.284-12.165-2.335-22.845-8.172-22.845-8.172-28.242-13.711-55.255-42.015-58.552-76.37-2.284-15.196 0.123-60.805-24.648-64.983-22.18-3.738-72.653 4.086-108.175 14.807-22.743 6.871-46.684-6.011-53.535-28.723s6.011-46.694 28.723-53.545c42.158-12.708 79.811-22.825 113.51-22.825 23.839 0 45.681 5.079 65.72 17.869 1.29 0.819 2.427 1.853 3.666 2.724l12.861-60.068-62.433 8.571c-19.139 2.591-38.339-4.342-51.323-18.637s-18.104-34.068-13.65-52.869l45.179-191.222c6.38-26.972 30.413-45.128 56.965-45.128 4.465 0 8.991 0.532 13.517 1.587 31.488 7.444 50.985 38.994 43.54 70.492l-25.549 108.104 48.476-6.656-18.186-31.908c-7.526-13.21-9.052-29.020-4.178-43.428s15.677-26.051 29.676-31.969l158.136-66.97c6.789-2.877 13.824-4.229 20.746-4.229 20.746 0 40.458 12.186 49.070 32.502 11.469 27.075-1.188 58.327-28.262 69.796z" />
<glyph unicode="&#xe60e;" d="M792.412 848.2c0-57.617-46.708-104.325-104.325-104.325s-104.325 46.708-104.325 104.325c0 57.617 46.708 104.325 104.325 104.325s104.325-46.708 104.325-104.325zM714.076 737.823l-25.989-26.163-25.19 26.46c-0.082-0.041-0.174-0.031-0.256-0.061-13.701-4.792-41.441-17.541-41.441-17.541-82.688-35.4-95.386-40.858-162.079 22.641-13.199 12.585-32.604 14.326-47.708 5.827l-81.172 69.499c-4.833 4.137-12.104 3.584-16.241-1.26-3.348-3.901-3.482-9.329-0.891-13.486l-22.794-26.614c-2.529-2.959-2.191-7.404 0.768-9.943 2.959-2.519 7.404-2.181 9.923 0.778l22.344 26.092 8.745-7.485-22.344-26.092c-2.529-2.959-2.181-7.414 0.768-9.933 2.949-2.529 7.393-2.191 9.923 0.758l22.344 26.102 8.755-7.485-22.344-26.102c-2.529-2.949-2.181-7.393 0.768-9.923 2.959-2.54 7.393-2.191 9.923 0.768l22.344 26.092 8.755-7.485-22.344-26.102c-2.529-2.959-2.191-7.393 0.768-9.923s7.393-2.191 9.923 0.768l22.344 26.092 13.763-11.786c-8.1-15.565-5.54-35.113 7.813-47.821 54.692-52.081 94.822-71.26 135.66-71.26 13.844 0 27.802 2.284 42.394 6.164v-202.516c0-12.657 2.857-24.32 7.772-34.836-0.061-0.983-0.031-67.297-0.031-67.297h160.010v-89.815h-44.483v-266.496c8.724-9.165 20.961-14.94 34.611-14.94 26.429 0 47.862 21.443 47.862 47.862l0.041 390.636c5.079 10.68 7.772 22.016 7.772 34.898v112.507c0 0 17.121-34.877 8.335-125.44-2.161-22.262 14.92-41.779 37.222-43.54 1.075-0.082 2.14-0.123 3.205-0.123 20.931 0 38.666 16.118 40.325 37.335 15.954 204.012-71.967 310.333-169.871 340.193zM688.343 505.201h-0.492l-25.16 34.437 25.16 168.141h0.492l25.16-168.141-25.16-34.437zM588.831-8.663c0-22.036 14.981-40.397 35.246-45.957v279.542h-35.267l0.020-233.585zM733.696 299.776h-587.633v-59.095h44.472v-291.103h49.787v291.103h399.114v-291.103h49.787v291.103h44.472zM185.395 405.217c0-0.44-34.734-68.424-34.734-68.424-5.202-10.004-1.311-22.303 8.673-27.505 3.011-1.577 6.226-2.324 9.39-2.324 7.363 0 14.469 4.004 18.104 10.977l35.092 67.441 39.27-68.198c3.779-6.543 10.629-10.22 17.695-10.22 3.451 0 6.943 0.881 10.158 2.724 9.759 5.622 13.117 18.104 7.496 27.863l-34.263 59.505h126.904v-69.683c0-11.264 9.134-20.398 20.398-20.398s20.388 9.144 20.388 20.398v77.117c0.020 0.256 0.143 0.461 0.143 0.717v64.481l-94.976 54.456h-124.989l-38.82 31.181c-8.786 7.055-21.627 5.663-28.672-3.123-7.045-8.776-5.652-21.617 3.123-28.682l39.608-31.816v-86.487zM433.449 653.865c-3.379 2.499-20.060 10.578-27.32-17.080-1.577-6.001-3.727-11.981-6.595-17.48-10.486-20.142-23.798-38.564-36.536-57.324-5.816-8.54-11.633-17.101-17.428-25.641l89.17-50.78c0 0 17.193 18.801 19.61 17.736 3.338-1.485 6.707-2.918 10.066-4.383 9.81-4.26 20.050-6.257 30.781-5.622 18.227 1.065 37.212 10.742 38.953 32.604 1.597 20.040-47.022 35.697-51.272 39.7-12.605 11.878-16.835 25.784-30.986 35.86-2.468 1.741-4.966 3.523-7.588 5.018-1.577 0.881-2.079 1.905-1.905 3.625 0.604 5.837 1.198 11.704 1.659 17.541 0.84 10.496-2.191 20.040-10.609 26.225z" />
<glyph unicode="&#xe60f;" d="M151.402 537.6c37.107 0 69.56 13.964 89.6 35.556l66.457-23.143 0.517-1.552-46.416-52.752c-28.444 7.887-63.354 2.844-95.030-16.679-31.547-19.394-65.681-91.41-26.764-140.024s121.535-55.984 169.244 2.327-3.103 125.931-3.103 125.931l32.582 44.865c18.877 22.497 35.685 20.687 35.685 20.687 15.644-9.438 35.297-16.162 55.337-20.816 4.525 29.22 16.549 55.984 34.004 78.352l-15.774-0.129-0.388 1.422 42.149 25.341c12.671 10.473 26.893 19.006 42.279 25.471l158.772 95.547c0 0-88.824 37.754-208.42-21.98 0 0-94.772-55.596-125.673-115.329 0 0-13.446-10.343-41.244-1.034l-60.251 13.964c0 0 15.515 81.972-55.596 106.667s-128.259-18.877-136.016-80.679 51.071-102.012 88.048-102.012zM224.065 330.602c-36.719 0-66.457 27.669-66.457 61.802s29.737 61.802 66.457 61.802 66.457-27.669 66.457-61.802-29.737-61.802-66.457-61.802zM162.263 689.131c36.719 0 66.457-27.669 66.457-61.802s-29.737-61.802-66.457-61.802-66.457 27.669-66.457 61.802 29.737 61.802 66.457 61.802zM703.354 206.869l-10.473-3.103c-13.059-3.879-25.471-0.776-27.539 6.982s6.723 17.196 19.782 21.204l5.301 1.681c13.059 4.008 21.592 15.257 19.006 25.083s-15.127 14.093-28.057 9.697l-11.248-3.879c-12.929-4.396-25.471-1.81-28.057 5.818s5.818 17.455 18.877 21.721l15.644 5.172c12.929 4.267 21.075 15.903 18.101 25.988-2.327 7.887-10.861 12.412-20.558 11.895-23.143-11.895-49.39-18.747-77.188-18.747-63.224 0-118.303 34.78-147.523 86.238-12.154-4.525-20.299-17.842-18.23-30.772l10.731-67.491c0 0 9.826-59.087-154.634-67.232-13.576-0.646-35.814-0.905-49.39-1.552-165.754-8.275-170.667-70.594-167.693-95.030s49.002-95.418 193.034 1.164c11.378 7.628 29.737 19.911 41.762 26.505 154.764 85.204 172.089 25.988 181.010 0.905 4.267-12.024 8.663-25.859 12.154-37.366 4.008-13.059 17.713-20.558 30.772-16.549l186.828 56.113c13.059 3.879 20.945 15.127 17.455 24.824-3.362 9.826-16.679 14.61-29.867 10.731zM596.558 461.576l1.81-0.517 1.939 0.388c0 0 24.307 7.758 17.325 12.671s-17.584 4.137-17.584 4.137h-2.974c0 0-10.731 0.776-17.842-4.137-6.982-4.784 17.325-12.541 17.325-12.541zM635.345 493.64c0-3.356-2.721-6.077-6.077-6.077s-6.077 2.721-6.077 6.077c0 3.356 2.721 6.077 6.077 6.077s6.077-2.721 6.077-6.077zM572.638 493.64c0-3.356-2.721-6.077-6.077-6.077s-6.077 2.721-6.077 6.077c0 3.356 2.721 6.077 6.077 6.077s6.077-2.721 6.077-6.077zM499.588 590.739c-23.143-21.463-39.176-51.329-44.089-83.911 0 0 0 0 0 0 0-0.129 0-0.259 0-0.517 0-0.129 0-0.129 0-0.259 0 0 0 0 0 0-0.905-6.594-1.552-13.059-1.552-19.911 0-27.669 8.016-50.424 21.721-75.119 25.212-37.107 70.206-68.008 121.535-68.008 10.473 0 20.816 1.164 30.642 3.232 13.964 3.103 27.281 8.145 39.434 14.998 2.457 1.422 4.913 2.844 7.24 4.396 39.564 25.471 65.939 69.818 65.939 120.372 0 32.065-10.602 61.543-28.444 85.333-5.689 7.628-12.154 14.739-19.265 21.204-25.341 22.756-58.699 36.719-95.418 36.719-38.012-0.129-72.275-14.869-97.745-38.529zM599.919 534.497c19.006 0 34.263-2.715 46.675-6.723 33.099-10.343 45.123-29.349 45.123-29.349l-35.426-16.549c0 0 3.103 22.626-2.069 22.626-6.594-0.259-4.008-51.459-3.749-60.509 0-0.646 0-1.034 0-1.293 0 0-12.024-19.394-50.554-19.394h-2.069c-37.236 0-50.554 19.782-50.554 19.782 0 6.853 0.517 13.705 0.646 20.428 0.129 5.56 0.129 11.119 0 16.679-0.129 6.206-0.259 12.412-1.293 18.618-0.259 1.552-0.646 6.853-2.974 6.853-2.457 0.129-2.715-4.784-2.844-6.335 0-1.81-0.259-3.62-0.129-5.43 0-1.81 0.259-3.62 0.388-5.43 0.129-2.457 0.259-4.913 0.517-7.37l-35.426 16.679c0 0 0.646 1.293 1.939 2.844 6.982 8.533 32.453 34.004 89.859 34.004h1.939z" horiz-adv-x="791" />
<glyph unicode="&#xe610;" d="M168.704 306.352c69.008-20.432 138.048 3.696 163.264 54.176l108.080-8.896 14.816-211.216c15.344-93.072 120.272-68.944 120.272-68.944l-13.712 270.624 141.888-7.52c-49.792 26.032-88.336 70.56-106.544 124.464l-46.080 3.232-8.88 108.096c50.48 25.216 74.64 94.288 54.224 163.296-22.384 75.616-89.712 122.368-150.384 104.416s-91.728-93.824-69.344-169.44c10.896-36.832 32.512-66.736 58.784-85.728l11.792-126.272-126.88 11.2c-18.992 26.272-49.2 47.568-86.032 58.48-75.616 22.384-151.632-8.816-169.6-69.488-17.952-60.688 28.72-128.096 104.336-150.48zM434.16 688.848c-10.048 40.032 5.264 78.368 34.208 85.648 28.944 7.264 60.56-19.296 70.608-59.328s-5.264-78.368-34.208-85.648c-28.944-7.248-60.56 19.312-70.608 59.328zM127.808 433.936c7.264 28.944 45.616 44.256 85.648 34.208s66.592-41.664 59.328-70.608c-7.264-28.944-45.616-44.256-85.648-34.208s-66.592 41.664-59.328 70.608zM804.528 714.4c-102.368 0-185.344-82.976-185.344-185.344 0-25.776 5.28-50.32 14.8-72.624 28.256-66.256 93.968-112.72 170.544-112.72 9.968 0 19.68 1.008 29.232 2.528 88.432 14.048 156.112 90.432 156.112 182.816 0 102.368-82.976 185.344-185.344 185.344zM881.2 523.808c0 0 4.048 29.248-2.704 29.248-9.104-0.336-4.72-76.304-4.72-80.016 0 0-15.52-25.040-65.472-25.040h-2.704c-49.952 0-65.472 24.816-65.472 24.816 0 3.712 4.384 81.52-4.72 81.856-6.752 0-2.704-30.144-2.704-30.144l-45.904 20.688c0 0 29.024 46.784 118.8 46.784h2.704c89.776 0 118.8-46.816 118.8-46.816l-45.904-21.376zM773.216 539.088c0-4.383-3.553-7.936-7.936-7.936s-7.936 3.553-7.936 7.936c0 4.383 3.553 7.936 7.936 7.936s7.936-3.553 7.936-7.936zM854.208 539.088c0-4.383-3.553-7.936-7.936-7.936s-7.936 3.553-7.936 7.936c0 4.383 3.553 7.936 7.936 7.936s7.936-3.553 7.936-7.936zM831.312 513.952c-9.104 6.416-22.736 5.424-22.736 5.424l-3.856-0.064c0 0-13.968 1.056-23.072-5.36s22.384-16.352 22.384-16.352l2.416-0.624 2.512 0.576c0-0.016 31.472 9.984 22.352 16.4z" />
<glyph unicode="&#xe611;" d="M693.747 207.711c-21.643 0-39.267 17.597-39.267 39.267v16.665c0 11.846-9.611 21.483-21.483 21.483v217.633c0 15.041-12.219 27.233-27.233 27.233-14.962 0-27.18-12.193-27.18-27.233v-217.659h-18.608v176.742c0 15.041-12.219 27.233-27.233 27.233-15.041 0-27.207-12.166-27.207-27.233v-176.742h-27.207v217.659c0 15.041-12.166 27.233-27.207 27.233s-27.18-12.193-27.18-27.233v-217.659h-22.921v176.742c0 15.041-12.219 27.233-27.26 27.233-15.014 0-27.207-12.166-27.207-27.233v-176.742h-27.233v217.659c0 15.041-12.193 27.233-27.233 27.233-15.014 0-27.18-12.193-27.18-27.233v-217.659h-20.073v176.742c0 15.041-12.166 27.233-27.207 27.233s-27.207-12.166-27.207-27.233v-176.742h-27.233v217.659c0 15.041-12.193 27.233-27.207 27.233-15.041 0-27.207-12.193-27.207-27.233v-217.659c-10.303 0-18.636-8.332-18.636-18.635v-61.523c0-63.333 51.353-114.713 114.687-114.713h683.647c25.052 0 45.415 20.339 45.415 45.415v24.652c0 26.169-21.245 47.387-47.413 47.387h-192.715zM261.516 580.95c47.227-1.997 96.078-2.662 140.217-2.662 88.331 0 157.867 2.662 157.867 2.662s1.303 0.080 3.647 0.080c13.71 0 63.227-1.411 100.124-20.471 7.853-4.046 17.277-3.408 24.491 1.705 7.215 5.058 10.969 13.763 9.797 22.495-7.508 55.533-32.611 134.388-112.53 167.93-30.482 12.778-63.573 17.277-97.568 17.277-82.74 0.080-171.151-26.782-241.859-26.782-30.030 0-56.89 4.871-78.773 18.662 0 0-16.212 12.059-29.071 33.889-4.18 7.055-12.193 10.915-20.313 9.797s-14.774-7.001-16.879-14.908c-7.481-28.166-11.102-65.569 1.597-106.885 0 0.026 27.207-97.17 159.25-102.787zM123.456 768.313c13.098-17.65 26.142-27.527 27.154-28.273 0.586-0.453 1.145-0.798 1.757-1.252 24.385-15.335 54.867-22.735 93.283-22.735 36.153 0 74.887 6.256 115.965 12.912 41.823 6.842 85.083 13.87 125.895 13.844 34.155 0 62.668-4.978 87.026-15.174 64.477-27.074 87.213-91.313 94.959-139.845-0.427 0.187-0.772 0.346-1.198 0.506-86.281 164.921-319.009 51.46-437.369 70.841-77.523 12.726-101.562 63.892-108.697 100.843 0.346 2.875 0.772 5.617 1.225 8.332z" />
<glyph unicode="&#xe612;" d="M951.858 705.193c-5.321 23.516-29.147 41.555-53.226 40.311l-476.577-24.603c-24.079-1.243-38.021-20.972-31.147-44.079l66.021-221.852c6.875-23.107 31.963-40.778 56.041-39.497l454.771 24.409c24.079 1.3 39.264 21.398 33.963 44.914l-49.846 220.396zM967.82 399.028l-454.868-33.573c-24.041-1.767-49.42-21.845-56.701-44.817l-64.585-204.103c-7.282-22.991 6.311-40.176 30.35-38.389l454.868 33.573c24.041 1.767 49.42 21.845 56.701 44.817l64.585 204.084c7.282 22.991-6.311 40.176-30.35 38.41zM415.492 408.29l-63.109 260.688c-5.669 23.437-29.147 47.439-52.448 53.633l-148.413 39.419c-23.301 6.194-49.885-6.757-59.38-28.913l-74.721-174.374c-9.495-22.156-15.185-59.555-12.7-83.537l23.749-229.599c2.486-23.981 22.563-50.857 44.855-60.021l228.434-94.061c22.292-9.185 45.749 2.155 52.41 25.322l59.535 207.074c6.66 23.166 7.457 60.933 1.787 84.372zM400.308 758.689h43.652c12.059 0 22.991 9.747 26.583 21.263 8.039 25.845 28.894 66.021 80.721 66.021 53.264 0 79.109-40.662 89.868-66.526 4.622-11.126 16.272-20.757 28.331-20.757h36.37c12.059 0 21.651 9.767 19.982 21.71-6.543 47.148-36.428 154.685-172.743 154.685-139.111 0-166.219-107.382-172.413-154.704-1.572-11.962 7.593-21.69 19.65-21.69z" />
<glyph unicode="&#xe613;" d="M958.4 466.64l-419.568 406.48c-31.472 30.464-56.736 0.112-56.736 0.112l-421.168-406.224c0 0-34.896-30.96-0.176-68.336s101.376 45.504 106.816 52.064l-1.408-345.648c0 0-5.488-57.088 55.792-57.088h142.992c18.080 0 35.056 20.976 35.056 38.368v283.312c0 0 0.384 30.32 30.336 30.32h157.056c29.968 0 36.608-30.32 36.608-30.32v-283.312c0-17.392 17.088-38.368 35.136-38.368h136.624c61.28 0 56 57.088 56 57.088l-1.2 343.936c5.44-6.56 72.496-88.576 107.216-51.2 34.72 37.392 0.624 68.816 0.624 68.816zM521.68 626.64c4.752 15.552 17.44 25.184 28.352 21.536s15.904-19.216 11.168-34.752c-4.752-15.552-17.44-25.184-28.352-21.536s-15.92 19.2-11.168 34.752zM482.88 648.72c10.352 3.28 22.896-7.008 28.032-22.992s0.896-31.616-9.456-34.896c-10.352-3.28-22.896 7.008-28.032 22.992s-0.896 31.616 9.456 34.896zM465.92 553.952c-9.856-3.12-21.824 6.688-26.736 21.872s-0.88 30.032 8.976 33.152c9.856 3.12 21.824-6.688 26.736-21.872 4.912-15.2 0.88-30.048-8.976-33.152zM536.208 512.288c0 0-10.032 10.192-18.4 10.192l-2.144-0.96c-8.368 0-18.4-12.064-18.4-12.064s-23.744-15.728-23.616 14.144c-0.192 50.88 42.032 52.4 42.032 52.4h2.144c0 0 42.224-1.68 42.016-52.56 0.112-29.872-23.632-11.152-23.632-11.152zM595.296 574.976c-4.544-14.88-16.224-24.256-26.096-20.96s-14.192 18.032-9.648 32.912c4.544 14.88 16.224 24.256 26.096 20.96s14.192-18.032 9.648-32.912z" />
<glyph unicode="&#xe614;" d="M493.84 929.088c-10.592-0.096-20.592-5.024-27.44-13.504l-450.256-557.872 41.072-33.152 437.216 541.728 454.336-542.080 40.448 33.904-467.68 557.984c-7.008 8.352-17.184 13.024-27.696 12.992zM552 192.736c-15.392-3.568-30.096-4.464-43.344-3.072l-179.744-179.728h380.416c26.512 0 53.376 20.8 60 46.48l87.2 337.776-354.368 422.8c-4.016 4.784-10.432 4.72-14.368-0.128l-341.12-422.672 49.168-280.272 194.272 194.272c-1.376 13.248-0.48 27.984 3.088 43.36 12.464 53.744 52.608 95.184 89.632 92.592 37.040-2.624 56.944-48.288 44.496-102.016-1.792-7.68-4.16-15.136-6.992-22.224 7.104 2.832 14.528 5.2 22.24 6.976 53.712 12.448 99.408-7.456 102-44.496 2.608-37.024-38.848-77.184-92.576-89.648z" />
<glyph unicode="&#xe615;" d="M1201.323 394.513l-40.449-33.905-454.335 542.097-437.215-541.712-41.071 33.152 450.254 557.872c6.848 8.481 16.849 13.392 27.441 13.505 10.51 0.033 20.687-4.657 27.697-13.008l467.678-558.001zM699.898 853.264l-341.117-422.656 67.408-384.256h120.352l-32.704 226.030c-8.862 61.217 34.096 110.848 95.968 110.848h204.784c61.857 0 103.631-49.44 93.312-110.416l-38.336-226.448h99.904l99.2 384.256-354.402 422.771c-4.015 4.799-10.433 4.736-14.369-0.129zM684.148 224.515c18.385 9.592 22.294 38.453 8.725 64.466-13.569 26.009-39.473 39.319-57.862 29.727s-22.294-38.453-8.725-64.464c13.569-26.009 39.475-39.32 57.862-29.728zM634.312 220.328c-13.567 26.001-39.472 39.305-57.859 29.71s-22.295-38.452-8.728-64.454 39.472-39.306 57.861-29.71c18.387 9.594 22.295 38.452 8.727 64.454zM795.441 254.259c13.569 26.009 9.662 54.871-8.725 64.464s-44.293-3.717-57.862-29.728c-13.569-26.009-9.661-54.871 8.725-64.464 18.389-9.594 44.295 3.717 57.862 29.728zM845.32 249.989c-18.385 9.594-44.292-3.709-57.859-29.71-13.569-26.002-9.661-54.86 8.727-64.454 18.387-9.595 44.292 3.707 57.861 29.71 13.567 26.004 9.661 54.859-8.728 64.454zM778.396 142.993c0.623 3.392 1.008 6.896 1.008 10.479 0 31.359-32.753 64.113-64.113 64.113-31.359 0.015-64.096-32.735-64.096-64.096 0-3.504 0.353-6.927 0.975-10.273-20.319-1.039-29.2-25.024-29.2-45.601 0-21.248 17.216-38.448 38.464-38.448 19.216 0 48.32 13.073 52.734 14.192 22.817-11.904 33.712-14.192 52.736-14.192 21.25 0 38.464 17.2 38.464 38.448 0.005 19.825-7.722 43.266-26.971 45.377z" horiz-adv-x="1448" />
<glyph unicode="&#xe616;" d="M520.436-64c139.958 0 253.421 77.798 253.421 217.758 0 139.958-118.254 258.132-253.421 253.421-119.591-4.169-253.423-113.463-253.423-253.421 0.002-139.982 113.463-217.758 253.423-217.758zM231.352 360.228c0 85.952-37.929 156.023-85.709 160.958-9.103 45.352-16.849 101.446-5.339 123.433 0 0-57.025-42.985-56.578-158.064-20.978-29.573-34.449-75.128-34.449-126.327 0-89.166 40.761-161.44 91.048-161.44 50.268 0.017 91.027 72.293 91.027 161.44zM376.835 451.702c56.498 0 102.315 81.218 102.315 181.407 0 100.191-45.798 181.407-102.315 181.407-0.404 0-0.789-0.102-1.193-0.102-10.6 47.254-23.565 119.813-10.073 145.583 0 0-67.178-50.57-55.123-189.033-21.947-33.275-35.907-82.633-35.907-137.856-0.021-100.191 45.798-181.407 102.296-181.407zM544.831 633.109c0-100.191 45.798-181.407 102.315-181.407 56.521 0 102.315 81.218 102.315 181.407 0 80.529-29.615 148.699-70.576 172.406-0.728 112.41-56.62 154.485-56.62 154.485 14.808-28.279-2.206-112.833-13.048-158.51-37.705-26.741-64.386-91.977-64.386-168.381zM870.042 667.154c9.813-18.751 5.587-62.283-1.496-102.842-43.067-12.783-75.919-79.033-75.919-159.037 0-89.166 40.764-161.442 91.048-161.442 50.289 0 91.048 72.276 91.048 161.442 0 63.235-20.551 117.831-50.41 144.31-10.82 84.778-54.272 117.569-54.272 117.569z" />
<glyph unicode="&#xe617;" d="M544.277 672.526c23.424 73.344 86.087 118.848 139.968 101.639 53.867-17.209 78.549-90.617 55.125-163.961-23.431-73.344-86.094-118.848-139.968-101.639s-78.556 90.617-55.125 163.961zM860.025 584.014c-48.725 15.566-106.404-28.715-128.825-98.901s-1.088-139.705 47.637-155.271 106.411 28.708 128.825 98.901c22.428 70.194 1.102 139.705-47.637 155.271zM444.43 503.616c51.108 15.509 71.986 89.202 46.656 164.622s-87.275 123.982-138.382 108.48-71.986-89.195-46.656-164.622c25.33-75.42 87.296-123.982 138.382-108.48zM313.344 485.952c-24.206 71.68-83.278 117.874-131.954 103.204-48.676-14.684-68.516-84.686-44.302-156.366s83.278-117.867 131.954-103.204c48.668 14.67 68.508 84.686 44.302 156.366zM525.198 480h-10.546c0 0-208.398-30.386-207.396-270.386-0.654-140.935 116.58-78.286 116.58-78.286s49.536 51.136 90.816 51.136l10.546 1.6c41.28 0 90.816-49.536 90.816-49.536s117.234-65.842 116.58 75.086c0.988 240-207.396 270.386-207.396 270.386z" />
<glyph unicode="&#xe618;" d="M1024 447.992c0 282.333-229.69 512.008-512 512.008-282.306 0-512-229.675-512-512.008 0-282.313 229.694-511.992 512-511.992 282.31 0 512 229.69 512 511.992zM512-8.102c-251.493 0-456.102 204.617-456.102 456.090 0 251.501 204.609 456.11 456.102 456.11 251.481 0 456.098-204.593 456.098-456.11 0.004-251.505-204.617-456.090-456.098-456.090zM512 864.879c-229.858 0-416.86-187.002-416.86-416.852 0-229.858 187.002-416.879 416.86-416.879 229.866 0 416.852 186.986 416.852 416.879 0 229.831-186.986 416.852-416.852 416.852zM512 87.050c-199.041 0-360.962 161.912-360.962 360.981 0 199.030 161.92 360.95 360.962 360.95s360.95-161.92 360.95-360.95c0-199.069-161.908-360.981-360.95-360.981zM597.658 415.873c-5.002 17.303-10.005 34.848-17.377 51.204-13.065 28.906-44.525 44.108-75.478 37.456-16.001-3.447-30.353-11.478-44.51-19.588-15.95-9.108-31.698-18.652-48.077-26.941-31.359-15.892-63.15-30.906-94.637-46.521-12.090-6.004-22.972-13.736-31.324-24.633-15.67-20.453-25.857-43.219-28.15-68.983-2.347-26.419 5.607-48.767 27.967-64.651 10.956-7.79 23.292-12.558 36.318-15.303 30.127-6.39 60.577-6.882 91.109-4.203 11.966 1.072 23.647 0.655 34.31-5.533 6.562-3.786 13.112-7.716 19.062-12.375 15.74-12.336 31.097-25.222 46.728-37.722 15.112-12.102 31.893-20.087 51.941-20.761 6.624 1.236 13.447 1.86 19.853 3.805 23.635 7.26 40.595 23.054 52.315 44.198 18.91 33.955 21.838 68.472 2.257 103.687-18.761 33.737-31.659 69.872-42.307 106.864zM806.79 442.608c-4.655 17.931-13.319 33.452-29.877 42.962-21.292 12.219-42.58 9.388-62.269-3.447-34.521-22.508-48.549-56.366-51.060-96.981 0.729-6.188 1.201-13.135 2.495-19.923 1.037-5.349 2.601-10.699 4.71-15.74 8.445-20.122 22.235-34.388 44.584-38.174 18.106-3.096 34.139 2.838 48.654 13.244 34.977 25 53.551 76.402 42.763 118.058zM463.833 560.919c21.089-9.724 41.071-5.295 59.711 6.882 36.848 24.056 57.154 77.806 45.745 120.311-4.877 18.071-13.611 33.663-30.462 43.098-20.68 11.572-41.422 9.014-60.608-3.166-35.164-22.329-49.449-56.389-52.233-99.133 1.174-6.987 1.957-16.559 4.476-25.658 5.143-18.598 15.256-33.99 33.37-42.334zM733.206 599.923c-0.838 5.361-1.563 14.246-3.677 22.82-3.891 15.95-11.864 29.651-25.471 39.433-18.999 13.623-44.018 13.393-66.456-0.936-24.364-15.541-38.755-38.419-46.217-65.79-6.62-24.22-6.332-48.256 4.589-71.4 11.498-24.321 33.406-36.965 58.608-33.873 16.305 2.012 30.006 9.763 41.706 20.925 24.251 23.167 35.495 52.093 36.918 88.82zM354.794 472.395c38.139 24.731 58.53 80.983 44.981 124.355-5.989 19.175-16.551 34.825-35.893 42.486-21.518 8.515-41.535 3.365-59.384-9.728-31.296-22.98-44.599-55.341-46.857-96.895 1.228-6.651 2.191-17.034 5.123-26.813 12.819-42.669 54.635-57.66 92.029-33.406z" />
<glyph unicode="&#xe619;" d="M686.452 842.502c-156.786 156.67-411.951 156.67-568.737-0.083-156.969-156.936-156.936-411.984 0-568.937 146.96-146.877 379.53-154.226 537.48-25.521l65.325-65.258-19.021-19.021 227.714-227.698 94.77 94.77-227.698 227.764-18.888-18.937-65.458 65.425c128.871 157.817 121.755 390.27-25.488 537.497zM669.726 337.21l-46.953-46.953c-136.802-112.594-339.244-106.641-467.051 21.149-135.97 135.887-136.004 357.184 0 493.004 135.854 135.887 357.034 135.887 492.838 0.067 127.89-127.857 133.859-330.316 21.165-467.267zM399.614 601.203c-59.423 0-165.815-86.623-165.815-193.531 0-106.924 74.187-27.816 165.815-27.816 91.595 0 165.781-79.108 165.781 27.816 0 106.907-106.309 193.497-165.781 193.531zM538.577 696.822c-11.489-42.863-45.922-70.845-76.88-62.548-30.942 8.263-46.737 49.763-35.281 92.575 11.456 42.896 45.889 70.845 76.88 62.582 30.925-8.297 46.737-49.746 35.281-92.609zM372.846 726.782c11.456-42.863-4.29-84.312-35.264-92.575-30.942-8.28-65.358 19.719-76.847 62.582-11.456 42.813 4.323 84.262 35.281 92.575 30.942 8.263 65.342-19.719 76.83-62.582zM169.722 655.788c24.574 14.182 60.42-1.895 80.023-35.913 19.652-33.984 15.629-73.089-8.912-87.272-24.574-14.199-60.453 1.895-80.056 35.88-19.652 34.018-15.645 73.089 8.945 87.305zM549.65 619.842c19.652 33.984 55.449 50.095 80.023 35.88 24.557-14.199 28.531-53.287 8.878-87.272-19.619-33.984-55.482-50.095-80.023-35.88-24.607 14.216-28.597 53.287-8.878 87.272z" />
<glyph unicode="&#xe61a;" d="M515.152 640h-1.296c0 0-178.096 194.272-333.52 51.792s-19.424-471.136 333.52-613.616l1.296-1.632c352.944 142.48 488.944 472.768 333.52 615.248-155.44 142.48-333.52-51.792-333.52-51.792zM521.040 519.712c11.344 35.536 41.712 57.584 67.808 49.248s38.048-43.904 26.704-79.44c-11.36-35.536-41.712-57.584-67.808-49.248s-38.048 43.904-26.704 79.44zM428.24 570.192c24.752 7.504 54.784-16.016 67.040-52.56s2.144-72.24-22.608-79.76-54.768 16.016-67.040 52.56-2.144 72.256 22.608 79.76zM387.696 353.568c-23.584-7.12-52.208 15.264-63.936 50-11.728 34.72-2.112 68.64 21.472 75.76s52.208-15.264 63.936-50c11.728-34.736 2.112-68.656-21.472-75.76zM555.808 259.232c0 0-24 24.176-44 24.176l-5.104-0.432c-20 0-44-24.080-44-24.080s-56.8-28.96-56.48 39.328c-0.48 116.288 100.48 133.776 100.48 133.776h5.104c0 0 100.96-17.408 100.48-133.696 0.32-68.288-56.48-39.072-56.48-39.072zM697.12 401.616c-10.864-34-38.816-55.456-62.416-47.92-23.616 7.536-33.936 41.232-23.072 75.232s38.816 55.456 62.416 47.92c23.6-7.536 33.936-41.216 23.072-75.232z" />
<glyph unicode="&#xe61b;" d="M442.368 202.138c-22.426 0-44.851 6.451-64.102 18.125-4.813 2.97-9.421 6.554-13.722 9.626-3.789 3.072-7.373 6.451-10.752 10.035-2.56 2.765-15.053 23.347-16.998 23.45-2.355 0.205-4.71 0.614-7.066 1.024-23.040 3.789-45.67 15.667-63.59 33.587-4.403 4.403-8.397 9.114-12.083 13.926l-107.622-212.89c-5.632-11.162 3.482-24.166 15.872-22.63l137.83 16.794 70.144-122.368c6.246-10.854 21.914-10.445 27.546 0.717l109.466 216.474c-12.595 4.301-24.269 10.547-33.997 18.534-9.83-2.867-20.173-4.403-30.925-4.403zM841.933 311.91c-3.686-4.915-7.782-9.523-12.186-13.926-17.92-17.92-40.243-29.798-63.795-33.587-2.048-0.41-4.506-0.717-6.861-0.922-1.946-0.205-14.336-20.787-16.998-23.552-5.325-5.53-11.059-10.035-17.408-15.155-2.253-1.024-4.608-3.072-7.066-4.506-19.149-11.674-41.574-18.227-64.102-18.227-10.752 0-21.197 1.536-30.925 4.506-9.83-7.987-21.402-14.234-33.997-18.534l109.466-216.474c5.632-11.162 21.402-11.571 27.546-0.717l70.144 122.368 137.83-16.794c12.39-1.536 21.504 11.469 15.872 22.63l-107.52 212.89zM755.61 443.085c8.192 12.493 15.258 25.702 21.094 39.424 12.902 30.413 19.354 62.771 19.354 96.051s-6.554 65.638-19.354 96.051c-12.39 29.389-30.208 55.808-52.941 78.438-22.63 22.63-49.050 40.448-78.438 52.941-23.962 10.138-49.459 16.384-75.366 18.534-7.68 0.614-15.462 0.819-23.142 0.819-33.28 0-65.638-6.554-96.051-19.354-29.389-12.39-55.808-30.208-78.438-52.941-22.63-22.63-40.448-49.050-52.941-78.438-12.902-30.413-19.354-62.771-19.354-96.051s6.554-65.638 19.354-96.051c5.837-13.722 12.902-26.931 21.094-39.424 9.216-14.029 19.968-27.136 31.846-39.117 22.63-22.63 49.050-40.448 78.438-52.941 26.317-11.162 54.17-17.51 82.739-19.046 9.626-0.512 19.354-0.512 28.979 0 28.672 1.536 56.525 7.885 82.842 19.046 29.389 12.39 55.808 30.208 78.438 52.941 11.878 11.981 22.63 25.088 31.846 39.117zM567.91 710.554c8.806 30.515 35.533 49.562 59.699 42.598s36.557-37.376 27.75-67.891c-8.806-30.515-35.533-49.562-59.699-42.598-24.064 6.963-36.557 37.376-27.75 67.891zM468.48 753.152c24.166 6.963 50.893-12.083 59.699-42.598s-3.686-60.928-27.75-67.891c-24.166-6.963-50.893 12.083-59.699 42.598-8.909 30.515 3.584 60.928 27.75 67.891zM373.555 577.229c-11.981 29.389-2.867 60.928 20.378 70.451s51.814-6.656 63.898-36.045c11.981-29.389 2.867-60.928-20.378-70.451s-51.814 6.656-63.898 36.045zM608.563 432.947c-36.659 10.035-78.643 8.806-115.61 1.229-1.843-0.41-3.584-0.819-5.325-1.229-19.661-5.325-64.307 3.584-55.398 44.646s48.23 39.322 58.982 94.618c3.174 16.282 10.547 32.358 24.474 42.189 13.619 9.626 31.949 12.083 47.923 7.782 11.981-3.174 22.426-10.547 29.594-20.685 6.144-8.704 9.728-18.944 11.776-29.286 10.752-55.398 50.074-53.555 58.982-94.618 8.806-41.062-35.84-49.971-55.398-44.646zM658.637 541.184c-23.245 9.523-32.461 41.062-20.378 70.451 11.981 29.389 40.55 45.568 63.898 36.045 23.245-9.523 32.461-41.062 20.378-70.451s-40.653-45.568-63.898-36.045zM620.954 243.405c3.072 0 6.246-0.512 9.318-1.638 36.045-12.8 82.33 6.451 98.611 40.96 4.506 9.523 13.722 15.667 24.166 16.077 38.195 1.741 73.728 37.171 75.776 75.264 0.512 10.24 6.554 19.251 15.77 23.552 34.509 16.486 53.658 62.771 40.755 98.714-3.584 9.83-1.331 20.787 5.734 28.467 25.805 28.262 25.805 78.438 0.41 106.803-6.861 7.578-8.909 18.227-5.53 27.853 12.8 36.045-6.451 82.33-40.96 98.611-9.523 4.506-15.667 13.722-16.077 24.166-0.819 17.408-9.114 36.25-24.371 51.507-15.053 15.053-33.69 23.347-50.893 24.269-10.24 0.512-19.251 6.554-23.552 15.77-7.475 15.565-22.221 29.696-41.882 37.888-11.162 4.608-22.528 6.861-33.28 6.861-8.397 0-16.384-1.331-23.654-3.891-3.174-1.126-6.349-1.638-9.626-1.638-6.861 0-13.722 2.458-18.944 7.373-12.8 11.776-32.154 19.149-53.658 19.149-0.717 0-1.536 0-2.253 0-21.504 0-40.755-7.373-53.555-19.149-5.325-4.813-12.083-7.373-18.944-7.373-3.174 0-6.451 0.512-9.523 1.638-7.168 2.56-15.258 3.891-23.654 3.891-10.752 0-22.118-2.15-33.28-6.861-19.661-8.192-34.406-22.221-41.882-37.888-4.403-9.216-13.414-15.258-23.552-15.77-17.203-0.922-35.84-9.216-50.893-24.269-15.258-15.258-23.552-34.099-24.371-51.507-0.512-10.445-6.656-19.661-16.077-24.166-34.509-16.282-53.76-62.566-40.96-98.611 3.379-9.626 1.331-20.275-5.53-27.853-25.498-28.365-25.395-78.541 0.41-106.803 7.066-7.782 9.216-18.637 5.734-28.467-12.902-35.942 6.246-82.227 40.755-98.714 9.216-4.403 15.258-13.414 15.77-23.552 2.048-38.093 37.581-73.523 75.776-75.264 10.445-0.512 19.661-6.656 24.166-16.077 1.126-2.355 2.355-4.608 3.789-6.861 0.614-0.922 1.229-1.843 1.843-2.765 19.661-28.365 60.518-42.906 93.082-31.334 3.072 1.126 6.144 1.638 9.318 1.638 6.758 0 13.312-2.458 18.534-7.066 14.643-13.107 34.611-19.149 54.17-18.842 20.48-0.307 39.731 5.734 54.374 18.842 5.12 4.608 11.878 7.066 18.637 7.066zM549.069 295.834c-38.4-0.102-76.8 7.27-112.23 22.221-33.69 14.234-63.898 34.611-89.805 60.621-13.722 13.722-25.907 28.672-36.454 44.749-9.318 14.234-17.408 29.286-24.166 45.158-14.746 34.816-22.221 71.885-22.221 110.080s7.475 75.162 22.221 110.080c14.234 33.69 34.611 63.898 60.621 89.805 25.907 25.907 56.218 46.285 89.805 60.621 24.064 10.138 49.459 16.998 75.366 20.173 12.288 1.536 24.474 2.048 36.864 2.048 38.195 0 75.366-7.475 110.182-22.221 33.69-14.234 63.898-34.611 89.805-60.621 25.907-25.907 46.285-56.218 60.621-89.805 14.746-34.816 22.221-71.885 22.221-110.080s-7.475-75.162-22.221-110.080c-6.656-15.872-14.746-30.925-24.166-45.158-10.547-15.974-22.733-31.027-36.454-44.749-25.907-25.907-56.218-46.285-89.907-60.621-30.208-12.8-62.157-20.070-94.925-21.811-5.018-0.205-10.035-0.41-15.155-0.41z" />
<glyph unicode="&#xe61c;" d="M687.376 272.976c-0.256-0.16-0.4-0.368-0.672-0.528-2.864-1.648-6.16-2.528-9.536-2.528-11.424 0-21.040 8.944-38.432 26.096-1.472 1.44-3.184 3.12-4.976 4.88 0.096-2.432 0.208-4.768 0.288-6.768 1.248-26.848 2.128-46.272-14.608-51.712-1.856-0.608-3.808-0.96-5.776-0.96-13.808 0-22.688 13.408-36.128 33.84-1.152 1.744-2.48 3.568-3.888 5.68-0.416-2.352-0.784-5.008-1.104-6.96-4.416-26.56-7.6-46.544-25.12-48.368l-1.088-1.648h-0.832c-16.112 0-22.832 18.384-32.128 42.208-0.784 2.016-1.712 5.552-2.688 8.016-0.976-2.448-1.904-5.6-2.688-7.616-9.328-23.824-16.048-42.608-32.16-42.608h-1.104l-0.832 1.664c-17.536 1.824-20.72 22.592-25.136 49.152-0.32 1.952-0.704 4.224-1.104 6.576-1.408-2.112-2.752-4.144-3.888-5.888-13.44-20.432-22.32-33.936-36.144-33.936-1.968 0-3.92 0.304-5.792 0.912-16.736 5.44-15.84 24.832-14.592 51.68 0.096 2 0.208 4.336 0.288 6.752-1.792-1.744-3.504-3.44-4.976-4.88-17.392-17.152-27.008-26.096-38.448-26.096-3.376 0-6.688 0.88-9.552 2.528-1.216 0.704-2.080 1.568-3.040 2.384l-48.208-127.28c-6.256-16.528 2.56-26.448 19.712-22.144l45.584 11.424c17.136 4.288 40.384-3.088 51.904-16.48l39.456-45.872c11.52-13.392 24.928-10.528 29.936 6.432l33.648 113.936c5.008 16.944 10.512 25.088 12.304 18.16l3.232-12.528 45.264-182.784c4.256-17.152 14.928-18.688 23.84-3.44l20.64 35.296c8.928 15.248 29.872 23.488 46.8 18.4l92.272-27.776c16.928-5.088 25.584 4.176 19.36 20.72l-79.888 212.064zM781.2 605.808c-1.104 10.656 60.368 31.072 58.192 41.376-2.208 10.448-66.704 4.208-69.952 14.24-3.296 10.144 52.56 42.976 48.256 52.624-0.912 2.032-4.32 2.784-9.216 2.784-13.824 0-39.408-6.016-53.184-6.016-4.64 0-7.936 0.688-8.992 2.512-5.328 9.2 42.448 52.96 36.224 61.52-0.752 1.040-2.224 1.472-4.256 1.472-12.96 0-48.448-18.272-61.376-18.272-1.872 0-3.264 0.384-4.064 1.264-7.104 7.888 30.576 60.592 22.688 67.696-0.608 0.544-1.456 0.8-2.496 0.8-11.664 0-48.512-31.024-60.192-31.024-0.928 0-1.712 0.192-2.288 0.624-8.56 6.24 17.392 65.6 8.192 70.928-0.448 0.256-0.96 0.384-1.536 0.384-10.816 0-43.68-43.088-54.56-43.088-0.48 0-0.912 0.096-1.296 0.272-9.648 4.304 3.36 67.792-6.8 71.088-0.272 0.080-0.544 0.16-0.848 0.16-10.416 0-35.28-53.648-45.824-53.648-0.208 0-0.4 0.144-0.592 0.176-10.304 2.176-10.864 68.32-21.52 68.32-0.016 0-0.192 0-0.272 0-10.416 0-24.176-62.208-34.832-62.208-10.464 0-23.936 59.984-34.288 62.016-0.336 0.032-0.64 0.112-0.976 0.112-10.48-0.768-11.088-66.080-21.328-68.256-0.192-0.048-0.384-0.304-0.592-0.304-10.544 0-35.392 53.712-45.808 53.712-0.288 0-0.576-0.048-0.848-0.128-10.144-3.296 2.848-66.768-6.8-71.072-0.384-0.176-0.832-0.256-1.296-0.256-10.88 0-43.744 43.088-54.56 43.088-0.576 0-1.088-0.128-1.536-0.384-9.2-5.328 16.752-64.688 8.176-70.928-0.592-0.432-1.36-0.624-2.288-0.624-11.68 0-48.528 31.024-60.176 31.024-1.040 0-1.888-0.256-2.496-0.8-7.888-7.104 29.792-59.808 22.688-67.696-0.784-0.88-2.192-1.264-4.064-1.264-12.928 0-48.432 18.272-61.376 18.272-2.032 0-3.504-0.448-4.256-1.472-6.24-8.56 41.536-52.32 36.208-61.536-1.056-1.824-4.352-2.512-8.992-2.512-13.776 0-39.36 6.016-53.184 6.016-4.88 0-8.304-0.752-9.216-2.784-4.304-9.648 51.536-42.48 48.24-52.624-3.264-10.032-67.744-3.792-69.968-14.24-2.176-10.304 59.296-30.72 58.192-41.376-1.088-10.448-65.472-17.744-65.472-28.48s64.384-18.032 65.472-28.48c1.104-10.656-60.368-31.072-58.192-41.376 2.208-10.448 66.704-4.208 69.952-14.24 3.296-10.144-52.56-42.976-48.256-52.624 0.912-2.032 4.32-2.784 9.216-2.784 13.824 0 39.408 6.016 53.184 6.016 4.64 0 7.936-0.688 8.992-2.512 5.328-9.2-42.448-52.96-36.224-61.52 0.752-1.040 2.224-1.472 4.256-1.472 12.96 0 48.448 18.272 61.376 18.272 1.872 0 3.264-0.384 4.064-1.264 7.104-7.888-30.576-60.592-22.688-67.696 0.608-0.544 1.456-0.8 2.496-0.8 11.664 0 48.512 31.024 60.192 31.024 0.928 0 1.712-0.208 2.288-0.624 6.096-4.432-5.248-35.696-9.008-55.328-1.52-7.952-1.84-14.064 0.816-15.6 0.448-0.256 0.96-0.384 1.536-0.384 10.816 0 43.68 43.072 54.56 43.056 0.48 0 0.912-0.128 1.296-0.304 9.648-4.304-3.36-67.872 6.8-71.168 0.272-0.080 0.544-0.32 0.848-0.32 10.416 0 35.28 53.328 45.824 53.312 0.208 0 0.4-0.8 0.592-0.848 10.32-2.16 10.88-69.632 21.536-69.632 0.096 0 0.176 0 0.272 0 10.416 0 24.176 62.208 34.832 62.208 10.64 0 24.416-62.208 34.832-62.208 0.096 0 0.176 0 0.272 0 10.656 0 11.216 67.472 21.504 69.648 0.192 0.048 0.384 1.632 0.592 1.632 10.544 0 35.392-53.712 45.808-53.712 0.288 0 0.576 0.048 0.848 0.128 10.144 3.296-2.848 66.768 6.8 71.072 0.384 0.176 0.832 0.256 1.296 0.256 10.88 0 43.744-43.088 54.56-43.088 0.576 0 1.088 0.128 1.536 0.384 1.184 0.688 1.776 2.288 1.936 4.544 1.136 15.216-17.584 60.96-10.128 66.384 0.592 0.432 1.36 0.624 2.288 0.624 11.68 0 48.528-31.024 60.176-31.024 1.040 0 1.888 0.256 2.496 0.8 7.888 7.104-29.792 59.808-22.688 67.696 0.784 0.88 2.192 1.264 4.064 1.264 12.928 0 48.432-18.272 61.376-18.272 2.032 0 3.504 0.448 4.256 1.472 6.24 8.56-41.536 52.32-36.208 61.536 1.056 1.824 4.352 2.512 8.992 2.512 13.776 0 39.36-6.016 53.184-6.016 4.88 0 8.304 0.752 9.216 2.784 4.304 9.648-51.536 42.48-48.24 52.624 3.264 10.032 67.744 3.792 69.968 14.24 2.176 10.304-59.296 30.72-58.192 41.376 1.088 10.448 65.472 17.744 65.472 28.48s-64.4 18.016-65.488 28.464zM649.84 372.608c-39.616-26.448-87.28-41.936-138.512-41.936-52.72 0-101.584 16.48-141.856 44.352-64.464 44.608-106.8 118.592-106.8 202.304 0 136.016 111.552 246.672 248.656 246.672 137.12 0 248.672-110.656 248.672-246.672 0-85.168-43.76-160.384-110.16-204.72zM511.328 776c-110.64 0-200.656-89.12-200.656-198.672 0-63.104 29.968-119.312 76.448-155.728 34.208-26.8 77.312-42.928 124.208-42.928 45.456 0 87.28 15.216 120.96 40.512 48.32 36.304 79.712 93.584 79.712 158.144 0 109.552-90.016 198.672-200.672 198.672zM508.816 672h19.184v-176h-16v160h-6.592l-32.24-20.080-4.848 16.736 40.496 19.344z" />
<glyph unicode="&#xe61d;" d="M920 506c0 70.688-57.312 128-128 128-63.168 0-115.536-45.808-125.984-106h-308.032c-10.448 60.192-62.8 106-125.984 106-70.688 0-128-57.312-128-128 0-38.288 16.896-72.544 43.536-96-26.64-23.456-43.536-57.712-43.536-96 0-70.688 57.312-128 128-128 61.776 0 113.328 43.776 125.344 102h309.312c12.016-58.224 63.568-102 125.344-102 70.688 0 128 57.312 128 128 0 38.288-16.896 72.544-43.536 96 26.64 23.456 43.536 57.712 43.536 96z" />
<glyph unicode="&#xe61e;" d="M827.085 769.229c1.434 34.714-11.059 69.837-37.581 96.358-50.278 50.278-131.482 49.971-181.76-0.307-39.731-39.731-48.64-98.304-24.781-147.046l-344.166-344.269c-48.742 23.859-107.315 14.95-147.046-24.781-50.278-50.176-50.483-131.584-0.205-181.862 26.522-26.522 61.542-38.912 96.256-37.478-1.434-34.714 11.059-69.837 37.581-96.256 50.278-50.278 131.482-49.971 181.76 0.307 39.731 39.731 48.538 98.304 24.678 147.046l344.166 344.166c48.742-23.859 107.315-14.95 147.046 24.781 50.278 50.278 50.483 131.686 0.205 181.965-26.522 26.419-61.44 38.81-96.154 37.376z" />
<glyph unicode="&#xe61f;" d="M502.688 24.032c227.84 0 413.2 185.36 413.2 413.216 0 227.84-185.36 413.216-413.2 413.216s-413.2-185.36-413.2-413.216c0-227.84 185.36-413.216 413.2-413.216zM502.688 779.616c188.784 0 342.352-153.584 342.352-342.368s-153.584-342.368-342.352-342.368c-188.784 0-342.368 153.584-342.368 342.368 0.016 188.784 153.584 342.368 342.368 342.368zM502.688 117.296c62.704 0 121.152 18.112 170.544 49.28l-144.672 116.064c-14.256-3.088-30.4-3.856-47.584-1.808-60 7.152-109.952 45.92-111.536 86.576-1.6 40.64 45.76 67.792 105.776 60.64 8.592-1.024 16.992-2.72 25.040-4.96-3.936 7.392-7.408 15.216-10.272 23.376-20 57.024-3.744 109.152 36.272 116.416 40.032 7.28 88.704-33.088 108.688-90.112 5.728-16.336 8.464-32.256 8.544-46.848l150.56-120.8c18.288 40.304 28.576 84.992 28.576 132.144 0 176.704-143.248 319.968-319.968 319.968-176.704 0-319.968-143.264-319.968-319.968s143.296-319.968 320-319.968z" />
<glyph unicode="&#xe620;" d="M925.328 304c8.832 0 13.904 6.848 11.312 15.296l-83.936 273.408c-2.608 8.448-11.872 15.296-20.704 15.296h-624c-8.832 0-18.048-6.864-20.576-15.328l-81.52-273.344c-2.528-8.464 2.592-15.328 11.424-15.328h808zM521.44 544h3.392c112.752 0 149.2-56.48 149.2-56.48l-57.648-25.68c0 0 5.088 37.92-3.392 37.92-11.44-0.416-5.936-95.776-5.936-100.432 0 0-19.504-31.328-82.224-31.328h-3.392c-62.736 0-82.224 30.768-82.224 30.768 0 4.656 5.504 101.968-5.936 102.4-8.48 0-3.392-38.448-3.392-38.448l-57.648 24.832c0 0 36.448 56.448 149.2 56.448zM519.456 430.064l3.040-0.8 3.168 0.72c0 0 39.52 12.56 28.080 20.608s-28.544 6.816-28.544 6.816l-4.848-0.080c0 0-17.536 1.328-28.976-6.736-11.472-8.048 28.080-20.528 28.080-20.528zM582.48 482.16c0-5.505-4.463-9.968-9.968-9.968s-9.968 4.463-9.968 9.968c0 5.505 4.463 9.968 9.968 9.968s9.968-4.463 9.968-9.968zM480.752 482.16c0-5.505-4.463-9.968-9.968-9.968s-9.968 4.463-9.968 9.968c0 5.505 4.463 9.968 9.968 9.968s9.968-4.463 9.968-9.968zM192 624h656c0 0 18.672 64-61.328 58.672 0 0-45.328 88-146.672 45.328 0 0-93.328 64-168-8 0 0-80 66.672-120 5.328 0 0-93.328-5.328-82.672-53.328 0 0-93.328 13.328-77.328-48z" />
<glyph unicode="&#xe621;" d="M346.656 384h-26.656v-96h26.656c13.648 0 23.168 10.72 28.544 24.16 2.944 7.376 4.416 18.16 4.416 28.336 0 14.064-2.208 24.768-6.624 32.304-4.4 7.536-13.184 11.2-26.336 11.2zM491.744 389.936c-11.44 0-20.56-4.224-27.376-12.656s-10.224-20.432-10.224-36 3.408-27.568 10.224-36 15.936-12.656 27.376-12.656 20.512 4.224 27.232 12.656 10.080 20.432 10.080 36c0 15.504-3.36 27.488-10.080 35.952s-15.792 12.704-27.232 12.704zM470.816 155.168l46.944-0.288c0 0 358.976-14.848 389.424 81.584 10.672 41.424-5.072 64.288-22 65.984-16.912 1.696-8.784 278.72-52.768 299.008s-151.92 54.544-305.872 54.544h-62.496c-153.952 0-262.64-32.992-306.624-53.296s-35.104-300.704-52.016-302.4c-16.912-1.696-32.656-23.504-22-64.912 30.448-96.432 387.408-80.224 387.408-80.224zM537.024 284.288c-10.432-10.752-25.536-16.128-45.28-16.128s-34.848 5.376-45.28 16.128c-14 13.184-20.992 32.192-20.992 56.992 0 25.312 7.008 44.32 20.992 56.992 10.432 10.752 25.536 16.128 45.28 16.128s34.848-5.376 45.28-16.128c13.936-12.688 20.912-31.68 20.912-56.992 0-24.816-6.976-43.808-20.912-56.992zM704 272h-21.376l-2.912 17.248c-5.568-6.528-10.56-11.136-15.008-13.808-7.632-4.672-16.992-7.008-28.128-7.008-18.32 0-33.312 6.336-44.992 19.008-12.192 12.752-18.288 30.176-18.288 52.288 0 22.352 6.16 40.288 18.464 53.776 12.32 13.488 28.592 20.24 48.848 20.24 17.568 0 31.664-3.984 42.336-12.896s16.768-16.848 18.336-32.848h-28.4c-2.192 16-7.536 15.568-16.032 19.312-4.752 2.064-10.032 2.864-15.84 2.864-11.12 0-20.272-4.304-27.424-12.704-7.152-8.368-10.736-21.056-10.736-37.904 0-16.976 3.872-28.992 11.632-36.048s16.56-10.592 26.432-10.592c9.68 0 17.632 1.232 23.808 6.784s9.984 20.288 11.424 20.288h-36.144v32h64v-80zM176.448 565.28c0 34.688 139.744 62.8 312.128 62.8s312.128-28.128 312.128-62.8-139.744-62.8-312.128-62.8-312.128 28.112-312.128 62.8zM397.888 297.776c-10-17.184-25.456-25.776-46.352-25.776h-63.536v144h63.536c8.576 0 15.696-4.032 21.392-5.904 9.696-3.184 17.552-10.48 23.552-18.992 4.816-6.88 8.096-15.040 9.856-23.040 1.744-8 2.624-15.984 2.624-23.232 0-18.368-3.68-34.304-11.072-47.056z" />
<glyph unicode="&#xe622;" d="M761.651 559.923c-9.114 26.624-31.949 46.899-60.109 52.224-21.811 65.434-83.661 112.64-156.467 112.64-74.138 0-136.909-48.947-157.594-116.326-12.902 3.277-26.522 4.915-40.448 4.915-74.138 0-136.806-48.64-157.594-116.224h653.926c-7.68 35.84-39.424 62.874-77.619 62.874-1.331 0-2.765 0-4.096-0.102zM887.808 437.35c-5.018 14.438-18.637 23.962-33.894 23.962h-684.032c-15.258 0-28.877-9.523-33.894-23.962l-91.136-262.554c-8.090-23.245 9.216-47.616 33.894-47.616h866.611c24.678 0 41.984 24.371 33.894 47.616l-91.443 262.554zM730.112 248.218c0-31.232-25.293-56.32-56.525-56.32-24.678 0-45.568 15.462-53.35 37.99h-213.504c-7.782-22.528-28.672-37.99-53.35-37.99-31.232 0-56.525 25.19-56.525 56.422 0 15.155 6.042 28.877 15.77 39.014 0.819 0.819 1.638 1.638 2.458 2.458-11.059 10.342-18.125 25.088-18.125 41.574 0 31.232 25.293 56.32 56.525 56.32 24.678 0 45.568-15.462 53.35-37.99h213.504c7.782 22.528 28.672 37.99 53.35 37.99 31.232 0 56.525-25.19 56.525-56.422 0-16.384-7.066-31.13-18.227-41.472 11.059-10.342 18.125-25.088 18.125-41.574z" />
<glyph unicode="&#xe623;" d="M911.424 555.344c0 62.624-396.272 52.656-396.272 52.656h-20.88c0 0-396.272 10.56-396.272-52.064 0 0 3.088-18.336 15.392-19.36l47.216-223.040c0 0-16.432-19.104-3.424-30.736 0 0 117.712-58.8 343.568-58.8h7.872c225.856 0 343.568 58.832 343.568 58.832 13.008 11.632-3.424 28.384-3.424 28.384l47.216 224.304c12.352 1.040 15.44 19.824 15.44 19.824zM699.488 530.208c9.568-234.064-197.072-226.208-197.072-226.208h-4.464c0 0-205.872-7.792-196.304 226.272 0 0-146.832 15.472-160.512 23.696 0 0 13.328 22.032 121.456 22.032 108.144 0 236.8 0 236.8 0s131.776 0 239.904 0c108.128 0 121.072-22.896 121.072-22.896-13.68-8.208-160.88-22.896-160.88-22.896zM682.704 459.552c-0.016-0.096-0.016-0.128-0.048-0.208 0.176 0.672 0.208 0.72 0.048 0.208zM529.168 445.968c-134.336 40.304-213.168 37.792-213.168 37.792l0.752-10.496c16-67.76 54.064-152.528 193.68-152.576 130.848-0.032 170.096 131.28 172.272 138.864 6.928 28.080-29.536-50.8-153.536-13.584z" />
<glyph unicode="&#xe624;" d="M536 871.328c-15.984 0-24-9.664-24-21.568v-0.528c-64-11.728-114.976-65.232-120.8-129.232h-21.072c-22.128 0-40.080-18.624-40.080-40s17.936-40 40.080-40h320.608c22.128 0 40.080 18.624 40.080 40s-17.952 40-40.080 40h-20.256c-5.664 64-46.48 114.704-110.48 128.16v1.6c0 11.92-8.016 21.568-24 21.568zM304.768 480h-6.56c-24.704 0-26.208-19.68-26.208-34.16v-5.648c0-14.464 11.728-24.192 26.208-24.192h4.56c11.040-32 49.232-66.448 81.232-67.168v-205.792c-16 0-32-8.352-32-30.608v-6.528c0-22.24 0-41.92 35.792-41.92 0.32 0 283.696 0 283.696 0h6.928c41.248 0.016 41.584 21.776 41.584 41.936v6.528c0 20.144-16 28.832-48 30.304v206.080c0 0 4.272 0.848 4.816 0.848 41.296 0 78.976 34.32 90.16 66.32h1.344c14.48 0 31.68 9.728 31.68 24.192v5.648c0 14.48 0 34.16-31.68 34.16h-3.344c-13.056 32-49.232 54.896-88.16 54.896-0.56 0-4.816-1.376-4.816-1.376v54.64c0 21.376-10.912 35.84-32.288 35.84h-212.88c-21.392 0-42.832-14.464-42.832-35.84v-57.408c-32-0.688-66.352-18.752-79.232-50.752zM530.848 566.4c69.472 0 125.792-56.32 125.792-125.792s-56.32-125.792-125.792-125.792c-69.472 0-125.792 56.32-125.792 125.792s56.32 125.792 125.792 125.792zM532.064 346.256c52.112 0 94.352 42.24 94.352 94.352s-42.24 94.352-94.352 94.352c-52.112 0-94.352-42.24-94.352-94.352s42.24-94.352 94.352-94.352zM529.040 474.464c19.040 0 34.48-15.44 34.48-34.48s-15.44-34.48-34.48-34.48c-19.040 0-34.48 15.44-34.48 34.48 0 19.056 15.44 34.48 34.48 34.48z" />
<glyph unicode="&#xe625;" d="M514.867 898.765c0.512-6.656 0.717-13.312 0.717-19.968 0-71.066-27.648-137.83-77.926-188.109l-79.974-79.974c-41.574-41.574-64.41-96.768-64.41-155.546s22.835-113.971 64.41-155.546c41.574-41.574 96.768-64.41 155.546-64.41s113.971 22.835 155.546 64.41l79.974 79.974c50.278 50.278 117.043 77.926 188.109 77.926 6.656 0 13.21-0.205 19.763-0.717-1.946 112.538-45.773 224.358-131.686 310.272-85.811 85.811-197.632 129.638-310.067 131.686zM781.312 347.034l-79.974-79.974c-50.278-50.278-117.043-77.926-188.109-77.926s-137.83 27.648-188.109 77.926c-50.278 50.278-77.926 117.043-77.926 188.109s27.648 137.83 77.926 188.109l79.974 79.974c41.574 41.574 64.41 96.768 64.41 155.546 0 6.144-0.307 12.288-0.819 18.432-102.093-8.602-201.83-52.019-279.859-130.15-175.616-175.616-175.616-460.39 0-636.109 175.616-175.616 460.39-175.616 636.109 0 78.029 78.029 121.446 177.664 130.15 279.757-6.042 0.512-12.083 0.717-18.227 0.717-58.778 0-114.074-22.835-155.546-64.41z" />
<glyph unicode="&#xe626;" d="M440.976 595.264c-11.44 0-20.56-4.224-27.376-12.656s-10.224-20.432-10.224-36 3.408-27.568 10.224-36 15.936-12.656 27.376-12.656 20.512 4.224 27.232 12.656 10.080 20.432 10.080 36c0 15.504-3.36 27.488-10.080 35.952s-15.808 12.704-27.232 12.704zM523.536 858.672c-234.64 0-424.864-141.264-424.864-315.52 0-88.56 49.2-168.56 128.336-225.872-15.168-59.264-42.304-134.304-84.592-149.008-63.824-22.208 96.656-54.112 225.28 81.36 48.272-14.144 100.8-22 155.84-22 234.64 0 424.864 141.264 424.864 315.52s-190.224 315.52-424.864 315.52zM323.552 480h-27.664l-16.688 79.472-4.88 26.048-4.88-25.712-16.672-79.808h-26.816l-39.184 128h30.656l18.256-75.376 3.968-20.144 3.984 18.752 15.6 76.768h30.464l16.416-75.36 4.208-20.16 4.272 18.352 18.416 77.168h29.408l-38.864-128zM486.256 489.616c-10.432-10.752-25.536-16.128-45.28-16.128s-34.848 5.376-45.28 16.128c-14 13.184-20.992 32.192-20.992 56.992 0 25.312 7.008 44.32 20.992 56.992 10.432 10.752 25.536 16.128 45.28 16.128s34.848-5.376 45.28-16.128c13.936-12.688 20.912-31.68 20.912-56.992-0.016-24.816-6.976-43.808-20.912-56.992zM635.6 489.616c-10.432-10.752-25.536-16.128-45.28-16.128s-34.848 5.376-45.28 16.128c-14 13.184-20.992 32.192-20.992 56.992 0 25.312 7.008 44.32 20.992 56.992 10.432 10.752 25.536 16.128 45.28 16.128s34.848-5.376 45.28-16.128c13.936-12.688 20.912-31.68 20.912-56.992-0.016-24.816-6.976-43.808-20.912-56.992zM784 592h-80v-32h64v-32h-64v-48h-32v128h112v-16zM830.976 477.328h-28.032v27.088h28.032v-27.088zM832 580.016l-7.968-68.016h-13.968l-10.064 68.016v27.984h32v-27.984zM590.32 595.264c-11.44 0-20.56-4.224-27.376-12.656s-10.224-20.432-10.224-36 3.408-27.568 10.224-36 15.936-12.656 27.376-12.656 20.512 4.224 27.232 12.656 10.080 20.432 10.080 36c0 15.504-3.36 27.488-10.080 35.952s-15.808 12.704-27.232 12.704z" />
<glyph unicode="&#xe627;" d="M201.011 528.794c-36.864-89.293-73.318-179.507-87.347-220.57-32.358-94.822-78.643-351.744 159.642-340.173 120.73 5.837 122.061 83.558 102.195 175.002-14.746 6.451-28.262 15.77-39.936 27.443-24.883 24.883-38.605 57.958-38.605 93.184 0 4.71 0.512 10.138 1.434 16.384-28.262 37.786-50.893 78.541-67.277 121.549-15.462 40.346-25.498 82.944-30.106 127.181zM344.576 417.28c11.469 24.474 24.269 47.821 37.683 66.662 7.68 10.957 19.354 33.69 30.618 79.872 8.192 33.28 15.053 74.24 20.582 121.754 9.318 80.282 12.493 160.256 13.619 205.312-76.39-20.378-202.752-83.968-212.48-281.498-0.41-7.987-0.614-16.282-0.614-24.781 0-107.622 32.87-192.819 75.674-258.253 8.397 28.16 20.582 60.518 34.918 90.931zM348.058 656.282c22.63 0 40.96-18.33 40.96-40.96s-18.33-40.96-40.96-40.96c-22.63 0-40.96 18.33-40.96 40.96s18.33 40.96 40.96 40.96zM654.848 202.445c9.83 11.878 16.691 26.317 19.866 41.37 3.277 15.462 1.843 30.003-1.638 45.261-0.717 3.277-1.638 6.861-2.56 10.547-12.083 46.080-40.038 118.17-72.192 163.635-59.802 84.685-69.939 352.256-71.578 435.2-7.373 1.024-14.643 1.536-21.811 1.536s-14.336-0.512-21.709-1.536c-1.638-82.842-11.776-350.515-71.578-435.2-32.154-45.466-60.109-117.555-72.192-163.635-0.922-3.686-1.843-7.168-2.56-10.547-3.482-15.258-4.915-29.798-1.638-45.261 3.174-15.155 10.035-29.491 19.866-41.37 18.022-21.709 45.67-34.611 73.83-34.611 3.789 0 7.475 0.205 11.162 0.717 8.294 0.922 16.282 2.97 23.757 5.939 8.602 3.379 16.589 7.987 23.757 13.619v14.848c-2.048 1.024-3.994 2.253-5.939 3.482-4.813 3.277-9.318 7.373-13.414 11.981-14.95 16.794-24.678 40.346-24.781 53.965 0 0.102 0 0.205 0 0.307 0 22.938 27.546 41.472 61.44 41.472 0.102 0 0.102 0 0.205 0 0 0 0.102 0 0.205 0 33.894 0 61.44-18.534 61.44-41.472 0-0.102 0-0.205 0-0.307-0.102-13.722-9.83-37.171-24.781-53.965-4.096-4.608-8.602-8.704-13.414-11.981-1.946-1.331-3.891-2.458-5.939-3.482v-14.848c7.168-5.632 15.155-10.24 23.757-13.619 7.475-2.97 15.462-4.915 23.859-5.939 3.686-0.41 7.373-0.717 11.162-0.717 27.75 0 55.398 12.902 73.421 34.611zM372.326 274.33c0 8.704 7.066 15.872 15.872 15.872 8.704 0 15.872-7.066 15.872-15.872 0-8.704-7.066-15.872-15.872-15.872s-15.872 7.168-15.872 15.872zM407.552 206.234c-8.704 0-15.872 7.066-15.872 15.872 0 8.704 7.066 15.872 15.872 15.872 8.704 0 15.872-7.066 15.872-15.872 0-8.704-7.066-15.872-15.872-15.872zM602.112 206.234c-8.704 0-15.872 7.066-15.872 15.872 0 8.704 7.066 15.872 15.872 15.872 8.704 0 15.872-7.066 15.872-15.872 0-8.704-7.168-15.872-15.872-15.872zM621.568 258.458c-8.704 0-15.872 7.066-15.872 15.872 0 8.704 7.066 15.872 15.872 15.872 8.704 0 15.872-7.066 15.872-15.872 0-8.704-7.168-15.872-15.872-15.872zM736.358-31.846c238.285-11.571 192 245.248 159.642 340.173-14.029 40.96-50.483 131.277-87.347 220.57-4.608-44.134-14.643-86.733-30.106-127.181-16.384-42.906-39.014-83.763-67.277-121.549 0.922-6.246 1.434-11.674 1.434-16.384 0-35.226-13.722-68.301-38.605-93.184-11.674-11.674-25.19-20.89-39.936-27.443-19.866-91.443-18.432-169.165 102.195-175.002zM627.507 483.942c13.414-18.944 26.214-42.189 37.683-66.662 14.234-30.413 26.419-62.771 34.918-90.829 42.803 65.434 75.674 150.733 75.674 258.253 0 8.499-0.205 16.691-0.614 24.781-9.83 197.53-136.192 261.12-212.582 281.498 1.024-45.056 4.198-125.030 13.619-205.312 5.53-47.514 12.493-88.474 20.582-121.754 11.366-46.285 22.938-69.018 30.72-79.974zM661.709 656.282c22.63 0 40.96-18.33 40.96-40.96s-18.33-40.96-40.96-40.96c-22.63 0-40.96 18.33-40.96 40.96s18.33 40.96 40.96 40.96zM509.542 153.088c-1.536 1.024-2.662 2.048-4.71 3.174-1.536-1.126-3.072-2.15-4.71-3.174-26.931-17.51-60.109-24.474-91.853-19.558 22.733-20.992 57.446-34.509 96.358-34.509 0.102 0 0.102 0 0.205 0 0 0 0.102 0 0.205 0 38.912 0 73.626 13.414 96.358 34.509-31.744-4.915-64.922 2.15-91.853 19.558z" />
<glyph unicode="&#xe628;" d="M620.032 492.237c-32.154 23.142-70.144 34.714-108.134 34.714s-75.981-11.571-108.134-34.816c-41.472-29.901-78.95-82.842-78.95-176.64 0-87.45 15.667-151.142 33.792-195.686 25.395-62.157 55.808-87.142 55.808-87.142l22.016 44.749 1.638 3.379c1.434-3.584 2.867-6.963 4.301-10.342 28.877-64.922 69.427-80.896 69.427-80.896s41.267 16.077 70.246 81.613c1.331 3.072 2.662 6.246 3.994 9.523l1.536-3.174 22.426-44.954c0 0 30.208 24.986 55.501 87.040 18.125 44.544 33.69 108.339 33.69 195.789 0.102 94.003-37.581 146.944-79.155 176.845zM560.128 296.448h-96.256c-9.933 0-17.92 7.987-17.92 17.92s7.987 17.92 17.92 17.92h29.696v51.2c-21.504 6.144-37.888 23.654-37.888 44.339 0 25.805 25.088 46.797 55.91 46.797s55.603-20.89 55.603-46.797c0-20.48-15.258-37.888-37.786-44.237v-51.302h30.72c9.933 0 17.92-7.987 17.92-17.92s-7.987-17.92-17.92-17.92zM413.286 837.325c-10.445 15.258-37.069 41.37-95.949 41.37-83.046 0-169.267-44.544-169.267-334.234s-22.835-474.317-68.506-527.258c0 0 118.374 18.739 169.677 125.645 0 0 0.512-87.142-23.347-125.645 0 0 57.651 34.611 105.062 76.083-11.264 24.883-20.378 52.224-27.136 81.613-9.933 42.803-14.95 90.112-14.95 140.595 0 48.845 9.318 92.058 27.853 128.512 15.667 30.925 37.888 56.934 66.048 77.21 18.944 13.619 39.731 24.166 62.054 31.232 21.709 6.861 44.237 10.342 67.072 10.342s45.363-3.482 67.072-10.342c22.221-7.066 43.11-17.51 61.952-31.13 28.16-20.275 50.483-46.182 66.253-77.21 18.534-36.454 27.955-79.667 27.955-128.614 0-50.483-5.018-97.69-14.848-140.595-6.758-29.389-15.872-56.832-27.034-81.715 47.514-41.472 105.267-75.981 105.267-75.981-23.962 38.4-23.45 125.645-23.45 125.645 51.405-106.906 169.677-125.645 169.677-125.645-45.67 52.941-68.608 237.67-68.608 527.258s-86.221 334.234-169.267 334.234c-59.187 0-85.811-26.419-96.154-41.574 30.106-16.486 52.736-41.165 66.355-72.602 3.891-9.114-0.205-19.661-9.318-23.552-2.355-1.024-4.71-1.434-7.168-1.434-6.963 0-13.517 3.994-16.486 10.752-1.024 2.458-2.15 5.018-3.379 7.066-14.541 28.672-38.81 48.23-72.192 58.88-6.451 2.048-12.698 3.584-18.534 4.813v0c-24.883 4.915-51.507 4.915-76.39 0-5.939-1.126-12.186-2.765-18.739-4.813-33.382-10.65-57.651-30.208-72.192-58.88-1.229-2.048-2.355-4.608-3.379-7.066-3.891-9.114-14.541-13.21-23.552-9.318-9.114 3.891-13.21 14.541-9.318 23.552 13.722 31.642 36.557 56.32 66.867 72.806zM642.15 650.752c19.866 0 35.942-16.077 35.942-35.942s-16.077-35.942-35.942-35.942c-19.866 0-35.942 16.077-35.942 35.942 0 19.763 16.077 35.942 35.942 35.942zM380.006 650.752c19.866 0 35.942-16.077 35.942-35.942s-16.077-35.942-35.942-35.942c-19.866 0-35.942 16.077-35.942 35.942 0 19.763 16.077 35.942 35.942 35.942z" />
<glyph unicode="&#xe629;" d="M53.76 704.41c3.891-51.507 13.722-107.93 35.123-158.618 1.946-4.506 6.246-6.963 10.547-6.963 3.072 0 6.144 1.126 8.499 3.686 0 0 287.027 310.272 287.642 310.886 6.451 6.963 1.434 19.661-8.499 19.661h-177.152c-91.136-0.102-163.021-77.824-156.16-168.653zM909.824 256.307c8.294 35.84 9.216 80.077 9.216 118.374 0 29.082 1.024 75.366-2.662 127.795-10.547 1.638-20.275 6.758-27.546 14.643l-287.744 310.886c-10.547 11.469-14.746 27.238-11.571 42.086-22.835 2.15-50.995 3.174-78.643 3.174-27.955 0-55.706-1.024-78.541-3.174 3.174-14.848-0.922-30.618-11.571-42.086l-287.539-310.886c-7.27-7.885-17.101-13.005-27.546-14.643-3.686-52.429-2.662-98.714-2.662-127.795 0-38.298 0.922-82.432 9.216-118.374 3.072 6.963 6.144 13.414 9.114 19.456 21.811 43.827 52.224 87.552 87.757 126.464 16.179 17.613 32.973 33.894 50.381 48.64-17.92 9.728-30.003 28.672-30.003 50.483 0 31.642 25.702 57.344 57.344 57.344 29.184 0 53.248-21.914 56.832-50.176 19.149 10.138 46.49 18.534 65.946 25.19v84.275c0 9.933 7.987 17.92 17.92 17.92s17.92-7.987 17.92-17.92v-74.138c16.384 3.584 31.744 6.042 48.128 7.27v106.803c0 9.728 7.782 17.613 17.408 17.92 10.24-0.307 17.408-8.192 17.408-17.92v-106.803c16.384-1.229 31.744-3.686 48.128-7.27v74.138c0 9.933 7.987 17.92 17.92 17.92s17.92-7.987 17.92-17.92v-84.378c19.456-6.656 46.899-15.053 66.048-25.19 3.584 28.262 27.648 50.176 56.934 50.176 31.642 0 57.344-25.702 57.344-57.344 0-21.811-12.186-40.755-30.003-50.483 17.408-14.746 34.202-31.027 50.381-48.64 35.533-38.912 65.946-82.637 87.757-126.464 2.867-5.939 5.939-12.493 9.011-19.354zM933.069 545.792c21.402 50.586 31.232 107.11 35.123 158.618 6.963 90.829-64.922 168.55-156.16 168.55h-177.152c-9.933 0-14.848-12.698-8.499-19.661 0.614-0.614 287.642-310.886 287.642-310.886 2.355-2.56 5.427-3.686 8.499-3.686 4.403 0 8.704 2.56 10.547 7.066zM897.536 158.31c0 14.848-3.174 32.256-9.011 51.302-37.888 121.446-190.464 307.61-377.344 307.61-0.102 0-0.205 0-0.205 0-0.102 0-0.102 0-0.205 0-186.88 0-339.354-186.266-377.242-307.61-5.939-19.046-9.011-36.454-9.011-51.302 0-68.301 64.819-81.203 113.766-81.203 29.696 0 53.658 4.71 53.658 4.71 67.277-58.675 218.214-58.778 218.829-58.778 0 0 0 0 0 0s0.102 0 0.205 0v0h0.307c0 0 0 0 0 0 0.614 0 151.654 0.102 218.829 58.778 0 0 23.859-4.71 53.658-4.71 48.947 0 113.766 12.902 113.766 81.203zM576.717 315.904h-131.379c-13.414 0-23.757 11.878-22.118 25.19 5.325 43.11 36.147 107.418 87.757 107.11 51.2 0.307 82.432-64.102 87.859-107.11 1.638-13.312-8.806-25.19-22.118-25.19z" />
<glyph unicode="&#xe62a;" d="M263.987 926.822c-11.878-27.238-33.075-93.286-10.854-181.555 20.582 19.251 43.622 36.045 69.018 50.381 28.262 15.974 58.88 28.57 91.341 37.581-12.083 16.794-58.163 75.776-128.614 102.502-8.192 3.174-17.408-0.819-20.89-8.909zM611.43 832.717c31.744-9.011 61.645-21.299 89.498-36.966 26.112-14.746 49.766-32.154 70.758-52.019 22.938 88.986 1.536 155.75-10.342 183.194-3.584 7.987-12.8 11.981-20.992 8.806-71.168-27.034-117.555-87.040-128.922-103.014zM841.318 425.472c1.843-1.331 3.994-1.946 6.042-1.946 5.427 0 10.547 4.403 10.342 10.65-9.318 310.579-234.394 366.080-316.518 376.013 13.824-8.090 24.064-22.733 24.781-43.827 0.41-11.469-1.638-24.576-6.963-39.424-30.208-83.763-16.998-224.563 33.28-287.13s32.666-175.411-80.179-175.411-130.355 112.845-80.077 175.411c50.278 62.566 63.59 203.366 33.382 287.13-5.325 14.848-7.373 27.955-6.963 39.424 0.614 21.299 10.957 35.942 25.088 44.032-80.794-9.421-308.634-63.488-317.952-376.218-0.205-6.246 4.915-10.65 10.342-10.65 2.048 0 4.096 0.614 6.042 1.946 14.438 10.445 33.69 26.010 38.298 37.99 0 0-12.902-84.378-7.475-154.726 0.512-6.042 5.427-9.523 10.342-9.523 3.379 0 6.861 1.638 8.909 5.222 11.878 20.89 28.774 47.206 43.11 55.91 0 0-25.19-80.077 36.25-151.347 48.333-56.115 85.811-129.843 101.683-175.309 1.638-4.608 5.632-6.861 9.728-6.861 3.994 0 7.885 2.15 9.626 6.656l20.378 52.736c0 0 4.608-69.53 21.914-114.893 1.638-4.403 5.632-6.554 9.626-6.554 3.686 0 7.373 1.946 9.318 5.837l17.818 36.762 17.92-36.762c1.946-3.891 5.632-5.837 9.318-5.837 3.994 0 7.987 2.253 9.626 6.554 17.306 45.363 22.118 114.995 22.118 114.995l20.378-52.736c1.741-4.403 5.632-6.656 9.626-6.656 4.096 0 8.090 2.355 9.728 6.861 15.872 45.466 53.35 119.194 101.683 175.309 61.44 71.27 36.25 151.347 36.25 151.347 14.336-8.704 31.232-35.021 43.11-55.91 2.048-3.584 5.53-5.222 8.909-5.222 5.018 0 9.933 3.482 10.342 9.523 5.427 70.349-7.475 154.726-7.475 154.726 4.71-12.083 23.859-27.648 38.298-38.093zM344.166 589.722c0 20.48 16.589 37.069 37.069 37.069s37.069-16.589 37.069-37.069c0-20.48-16.589-37.069-37.069-37.069s-37.069 16.589-37.069 37.069zM642.253 552.653c-20.48 0-37.069 16.589-37.069 37.069s16.589 37.069 37.069 37.069c20.48 0 37.069-16.589 37.069-37.069s-16.589-37.069-37.069-37.069zM571.29 349.798c0-23.64-26.728-42.803-59.699-42.803s-59.699 19.164-59.699 42.803c0 23.64 26.728 42.803 59.699 42.803s59.699-19.164 59.699-42.803z" />
<glyph unicode="&#xe62b;" d="M170.291 237.67c4.403 0 11.162 3.584 22.426 10.547 26.010 15.872 46.592 47.923 61.338 90.112 20.378 58.368 29.491 136.192 26.522 218.214-2.97 80.384 29.798 158.208 73.933 224.256 14.234 21.299 44.646 46.694 15.053 46.694-70.451 0-417.178-178.176-300.851-351.949 111.206-166.195 82.022-237.875 101.581-237.875zM669.594 780.698c44.032-66.048 76.8-143.974 73.933-224.256-2.97-81.92 6.144-159.846 26.522-218.214 14.746-42.189 35.328-74.24 61.338-90.112 11.366-6.963 18.125-10.547 22.426-10.547 19.456 0-9.626 71.782 101.581 237.875 116.326 173.773-230.4 351.949-300.851 351.949-29.696 0 0.819-25.395 15.053-46.694zM274.022 292.762c5.53-11.469 11.366-22.938 17.408-34.304 68.915-129.126 60.314-146.432 60.314-179.098 0-29.901 68.403-51.098 139.674 5.632v58.368c-26.624 11.366-58.778 40.653-58.778 66.867 0 33.382 35.226 38.4 78.746 38.4 0.205 0 0.41 0 0.614 0 0 0 0.41 0 0.614 0 43.52 0 78.746-5.018 78.746-38.4 0-26.214-32.154-55.501-58.778-66.867v-58.368c71.68-56.73 139.674-35.533 139.674-5.632 0 32.768-8.602 49.971 60.314 179.098 6.042 11.366 11.878 22.835 17.408 34.304-8.704 18.022-16.179 38.605-22.323 61.338-15.77 58.163-22.733 128.614-19.968 203.571 1.024 28.365-2.867 57.958-11.674 88.064-7.168 24.576-17.51 49.357-30.822 73.83-22.323 41.165-48.845 71.475-48.845 71.475-8.397 12.39-10.445 23.45-9.933 32.358-52.019 17.51-94.413 15.462-94.413 15.462-0.205 0-42.394 2.048-94.413-15.462 0.614-8.909-1.536-19.968-9.933-32.358 0 0-26.522-30.31-48.845-71.475-13.312-24.474-23.654-49.357-30.822-73.83-8.806-30.003-12.698-59.699-11.674-88.064 2.765-75.059-4.198-145.408-19.968-203.571-6.144-22.733-13.619-43.213-22.323-61.338zM624.538 566.784c26.624 0 48.23-21.606 48.23-48.23s-21.606-48.23-48.23-48.23c-26.624 0-48.23 21.606-48.23 48.23s21.606 48.23 48.23 48.23zM399.462 566.784c26.624 0 48.23-21.606 48.23-48.23s-21.606-48.23-48.23-48.23c-26.624 0-48.23 21.606-48.23 48.23s21.606 48.23 48.23 48.23z" />
<glyph unicode="&#xe62c;" d="M257.536 175.002c39.219 52.634 36.966 102.093 40.141 147.456 1.536 20.992-0.307 42.086-5.325 62.566-7.782 31.642-16.691 62.464-25.19 91.648-18.022 62.054-33.587 115.61-33.587 160.768 0 39.834 3.379 70.963 10.752 97.587-52.838-29.696-121.754-80.691-184.525-166.502-124.621-170.086 122.573-494.387 197.734-393.523zM777.114 735.539c7.475-26.726 10.854-57.958 10.854-98.099 0-45.158-15.565-98.714-33.587-160.666-8.192-28.058-16.691-57.446-24.269-87.757-5.222-21.094-7.27-42.906-5.632-64.614 3.482-45.875 0.512-95.949 40.346-149.402 75.162-100.864 322.355 223.437 197.734 393.523-63.078 86.323-132.403 137.523-185.446 167.014zM729.6 758.579c-10.65 19.866-25.395 36.045-44.646 51.917-15.667 12.902-36.864 17.101-58.368 17.101-43.622 0-88.166-18.125-88.166-18.125h-55.194c0 0-44.544 18.125-88.166 18.125-21.504 0-42.701-4.096-58.368-16.896-19.456-15.974-34.304-32.358-44.954-52.531-15.36-28.979-22.323-65.843-22.323-120.627 0-57.549 31.027-139.264 54.784-231.629 14.541-56.832 26.317-117.76 26.317-179.507 0-108.954 72.397-126.771 119.91-126.771 23.245 0 40.55 4.301 40.55 4.301s17.203-4.301 40.346-4.301c47.514 0 120.013 17.818 120.013 126.874 0 62.054 11.878 123.187 26.522 180.224 23.654 92.058 54.477 173.363 54.477 230.81-0.102 54.989-7.168 91.955-22.733 121.037zM358.502 546.304c0 30.515 24.678 55.194 55.194 55.194s55.194-24.678 55.194-55.194-24.678-55.194-55.194-55.194c-30.515 0-55.194 24.678-55.194 55.194zM510.874 199.475c0 0-77.722 18.432-77.722 85.709s52.634 13.21 77.722 13.21c25.088 0 77.722 54.067 77.722-13.21 0-67.174-77.722-85.709-77.722-85.709zM606.822 491.11c-30.515 0-55.194 24.678-55.194 55.194s24.678 55.194 55.194 55.194c30.515 0 55.194-24.678 55.194-55.194s-24.781-55.194-55.194-55.194z" />
<glyph unicode="&#xe62d;" d="M128.922 594.33c22.118 8.090 45.875 12.186 65.434 14.234 14.234 43.725 33.178 82.125 56.525 114.483 15.053 20.787 31.949 39.219 50.586 55.091-38.195 20.582-100.147 43.725-167.219 28.262-77.517-17.818-98.918-90.726-104.858-132.608-1.741-11.981 10.65-21.197 21.709-15.974 46.080 21.606 84.992 11.162 84.992 11.162-10.342-14.438-19.763-36.147-26.829-54.579-4.608-12.493 7.373-24.576 19.661-20.070zM431.514 270.029c0-14.131 9.421-26.829 24.474-36.045 14.234-8.192 33.587-13.824 54.989-13.824 20.48 0 40.55 5.632 54.886 13.824 15.053 9.216 24.371 21.914 24.371 36.045 0 27.443-35.226 49.869-79.258 49.869-43.827 0-79.462-22.426-79.462-49.869zM970.445 657.613c10.957-5.12 23.347 3.994 21.709 15.974-5.939 41.882-27.341 114.688-104.858 132.608-67.072 15.462-128.922-7.68-167.219-28.262 18.637-15.872 35.635-34.202 50.586-55.091 23.347-32.256 42.291-70.656 56.525-114.483 19.558-2.048 43.315-6.042 65.434-14.234 12.39-4.506 24.371 7.578 19.661 19.866-6.963 18.534-16.486 40.141-26.829 54.579 0 0.205 38.912 10.65 84.992-10.957zM870.093 140.288c8.602 0 16.589 7.27 15.36 17.306-8.704 69.427-31.949 223.334-85.709 417.997-3.379 12.288-13.517 41.779-14.848 45.261-15.77 40.858-37.99 79.667-68.403 111.411-30.822 32.154-69.53 55.398-112.435 67.072-24.986 6.861-50.278 8.602-75.981 10.24 0 0-0.205-291.328 69.837-406.835 45.978-75.776 60.621-140.083 40.141-176.538-8.806-15.77-24.166-25.907-40.653-32.461-21.811-8.704-50.688-12.902-86.63-12.902s-64.819 4.198-86.63 12.902c-14.95 5.939-32.256 17.613-40.653 32.461-20.48 36.454-5.939 100.762 40.141 176.538 70.144 115.405 69.939 406.733 69.939 406.733-25.805-1.638-50.995-3.379-75.981-10.24-43.008-11.776-81.715-34.918-112.435-67.072-30.413-31.744-52.531-70.554-68.403-111.411-1.331-3.379-11.469-32.973-14.848-45.261-53.76-194.662-77.005-348.467-85.709-417.997-1.229-10.035 6.758-17.306 15.36-17.306 3.482 0 7.066 1.229 10.138 3.994l40.755 36.557c0 0-13.312-60.416-0.717-125.338 1.536-7.885 8.294-12.493 15.155-12.493 3.994 0 8.090 1.536 11.162 5.018 29.389 31.949 87.040 93.696 133.018 137.421-1.741-2.15 26.522-21.197 28.57-22.323 29.491-16.794 70.042-25.293 121.139-25.293 0 0 0.102 0 0.102 0s0 0 0 0c50.995 0 91.443 8.602 120.934 25.293 10.547 5.939 20.378 13.517 28.57 22.323 45.978-43.725 103.629-105.574 133.018-137.523 3.174-3.379 7.168-5.018 11.162-5.018 6.963 0 13.722 4.71 15.155 12.493 12.8 65.024-0.512 125.542-0.512 125.542l40.755-36.557c3.072-2.765 6.656-3.994 10.138-3.994zM333.824 610.816c0 18.125 14.643 32.768 32.768 32.768s32.768-14.643 32.768-32.768-14.643-32.768-32.768-32.768-32.768 14.643-32.768 32.768zM655.053 578.048c-18.125 0-32.768 14.643-32.768 32.768s14.643 32.768 32.768 32.768 32.768-14.643 32.768-32.768-14.746-32.768-32.768-32.768z" />
<glyph unicode="&#xe62e;" d="M549.99 1.229c-3.789 3.994-7.168 7.885-10.035 11.264-10.24 12.288-19.866 25.907-28.467 40.55-8.704-14.643-18.33-28.365-28.672-40.653-2.867-3.482-6.349-7.27-10.138-11.264 11.162-4.403 24.371-6.963 38.605-6.963s27.546 2.56 38.707 7.066zM355.328 46.387c0 0 2.867-36.762 29.184-49.459 2.253-1.126 4.813-1.638 7.782-1.638 12.902 0 31.437 10.752 50.483 30.208 0 0 0 0.102 0 0.102 13.005 13.312 26.214 30.106 38.195 51.61v0c5.837 10.24 11.366 21.094 16.384 32.768-24.166 4.608-41.984 20.992-41.984 40.448 0 23.040 25.088 41.779 55.91 41.779 30.925 0 55.91-18.739 55.91-41.779 0-19.354-17.715-35.738-41.574-40.448 5.018-11.878 10.547-22.938 16.384-33.075 11.878-20.787 24.986-38.093 37.786-51.302 19.046-19.558 37.478-30.31 50.381-30.31 2.867 0 5.53 0.512 7.782 1.638 26.317 12.698 28.672 49.459 28.672 49.459s0 25.395 0 181.248 77.824 125.235 77.824 339.456c0 155.75-26.726 273.101-41.37 325.632-1.434 5.222-6.451 7.782-11.469 7.782-4.71 0-9.318-2.355-11.162-7.066-32.666-83.558-74.547-260.096-74.547-260.096h-188.518c0 0-41.984 176.947-74.65 260.301-1.843 4.608-6.451 6.963-11.162 6.963-5.018 0-10.035-2.662-11.469-7.782-14.746-52.429-41.984-169.882-41.984-325.837 0-214.221 77.21-183.501 77.21-339.456s0-181.146 0-181.146zM614.707 459.674c18.33 0 33.075-14.848 33.075-33.075 0-18.33-14.848-33.075-33.075-33.075-18.33 0-33.075 14.848-33.075 33.075-0.102 18.227 14.746 33.075 33.075 33.075zM406.835 459.674c18.33 0 33.075-14.848 33.075-33.075 0-18.33-14.848-33.075-33.075-33.075-18.33 0-33.075 14.848-33.075 33.075-0.102 18.227 14.746 33.075 33.075 33.075z" />
<glyph unicode="&#xe62f;" d="M179.2 485.683c-5.53 29.286-8.294 60.826-8.294 94.413 0 78.746 15.258 146.739 45.466 202.138 2.765 5.12 5.734 10.035 8.704 14.95-58.061-38.093-137.114-118.784-158.515-282.624-34.816-267.059-133.734-518.656 64.717-518.656 151.859 0 10.65 284.774 47.923 489.779zM955.085 514.56c-21.709 166.707-103.219 247.296-161.485 284.467 3.482-5.53 6.758-11.162 9.933-16.896 30.208-55.296 45.466-123.29 45.466-202.035 0-31.744-2.458-61.645-7.475-89.6 40.346-205.312-104.243-494.49 48.845-494.49 198.451-0.102 99.533 251.494 64.717 518.554zM514.867 908.8c-3.277 0-6.554 0-9.83 0-24.576 0-136.192-4.813-215.654-87.040-46.899-48.538-82.739-124.109-82.739-241.766 0-4.608 0.102-9.114 0.205-13.619 1.843-78.131 20.070-136.090 46.592-179.098 6.042 12.8 13.824 25.395 23.552 37.99 20.89 27.238 47.309 50.381 72.806 72.909 25.395 22.323 49.357 43.418 63.488 64.717 12.8 19.251 15.667 35.533 9.523 54.477-25.395 78.643-5.018 130.765 16.486 160.563 23.552 32.563 53.555 45.773 56.832 47.104l13.824 5.734 13.824-5.734c3.379-1.434 33.382-14.541 56.934-47.104 21.606-29.798 41.882-81.92 16.486-160.563-6.144-18.944-3.277-35.328 9.523-54.477 14.234-21.299 38.195-42.394 63.488-64.717 25.498-22.426 51.917-45.67 72.806-72.909 9.626-12.595 17.51-25.19 23.45-37.888 26.829 43.52 45.158 102.502 46.592 182.067 0.102 3.482 0.102 6.963 0.102 10.547 0 116.019-34.816 191.181-80.794 239.718-79.462 84.173-192.717 89.088-217.498 89.088zM317.44 555.008c-21.094 0-38.195 17.101-38.195 38.195s17.101 38.195 38.195 38.195 38.195-17.101 38.195-38.195c0-21.094-17.101-38.195-38.195-38.195zM701.44 555.008c-21.094 0-38.195 17.101-38.195 38.195s17.101 38.195 38.195 38.195 38.195-17.101 38.195-38.195c0-21.094-17.101-38.195-38.195-38.195zM509.952 230.605l-1.638-1.331-63.488-49.869c18.637-12.493 41.062-19.866 65.229-19.866s46.592 7.373 65.229 19.866l-65.331 51.2zM741.274 353.485c-32.256 109.363-214.938 161.28-178.176 275.046 40.141 124.621-53.146 163.533-53.146 163.533s-93.286-38.912-53.043-163.635c36.762-113.766-146.022-165.683-178.176-275.149-4.301-14.746-5.222-30.925-4.403-46.182 6.246-112.435 92.774-130.56 104.653-132.506 0.205 0 0.307 0 0.512 0 0.717 0 1.331 0.205 1.843 0.614l128.614 100.966 128.614-100.966c0.512-0.41 1.229-0.614 1.843-0.614 0.205 0 0.307 0 0.512 0 11.878 1.946 98.509 20.070 104.755 132.71 0.922 15.258 0 31.437-4.403 46.182zM509.952 349.696c0 0-32.768 8.806-59.187 27.75-17.818 12.698-32.666 30.106-32.666 52.326 0 55.398 91.853 53.555 91.853 53.555s91.853 1.843 91.853-53.555c0-22.323-14.848-39.629-32.666-52.326-26.419-18.944-59.187-27.75-59.187-27.75z" />
<glyph unicode="&#xe630;" d="M45.81 106.902l131.499 42.603c0 0 79.789-89.868 235.212-89.868h14.778c155.423 0 235.212 90.099 235.212 90.099l131.499-44.060 19.263 57.264-113.033 39.632c2.563 3.844 5.147 12.428 5.147 12.428h97.887v77.673h-82.487c0 0 3.028 52.545-26.7 80.294-69.245 39.963-117.596 112.023-124.548 195.792-39.030-35.71-72.565-74.371-72.565-74.371s-51.691 11.865-69.671 11.865h-14.778c-17.982 0-69.691-13.437-69.691-13.437s-129.888 151.266-176.123 133.286c-57.807-20.545-3.767-232.94-11.632-244.434-39.827-24.409-36.041-89.013-36.041-89.013h-92.489v-77.673h107.886c0 0 2.563-8.447 5.147-12.31l-113.033-38.895 19.263-56.876zM560.876 340.249c24.467 0 44.311-19.845 44.311-44.311s-19.845-44.311-44.311-44.311c-24.467 0-44.311 19.845-44.311 44.311s19.845 44.311 44.311 44.311zM283.429 340.249c24.467 0 44.311-19.845 44.311-44.311s-19.845-44.311-44.311-44.311c-24.467 0-44.311 19.845-44.311 44.311s19.845 44.311 44.311 44.311zM818.592 800.826c-112.916 0-204.861-88.643-210.705-200.084-0.194-3.728-0.563-7.397-0.563-11.184 0-67.399 31.671-127.285 80.817-165.967 35.942-28.292 81.168-45.302 130.451-45.302 116.684 0 211.268 94.586 211.268 211.268 0.019 116.665-94.586 211.268-211.268 211.268zM933.082 702.396l-171.132-221.347c-4.66-6.020-11.593-5.612-15.495 0.932l-55.051 92.449c-3.903 6.543-1.262 9.709 5.884 7.068l0.874-0.582 46.487-30.7c7.147-2.641 17.379-0.485 22.854 4.796l143.363 152.569c5.476 5.301 10.506 11.398 16.234 10.31 5.748-1.049 12.059-7.865 5.981-15.495z" horiz-adv-x="1056" />
<glyph unicode="&#xe631;" d="M741.714 204.571q0-22.857-16-38.857l-77.714-77.714q-16-16-38.857-16t-38.857 16l-168 168-168-168q-16-16-38.857-16t-38.857 16l-77.714 77.714q-16 16-16 38.857t16 38.857l168 168-168 168q-16 16-16 38.857t16 38.857l77.714 77.714q16 16 38.857 16t38.857-16l168-168 168 168q16 16 38.857 16t38.857-16l77.714-77.714q16-16 16-38.857t-16-38.857l-168-168 168-168q16-16 16-38.857z" horiz-adv-x="805" />
<glyph unicode="&#xf015;" d="M804.571 393.143v-274.286q0-14.857-10.857-25.714t-25.714-10.857h-219.429v219.429h-146.286v-219.429h-219.429q-14.857 0-25.714 10.857t-10.857 25.714v274.286q0 0.571 0.286 1.714t0.286 1.714l328.571 270.857 328.571-270.857q0.571-1.143 0.571-3.429zM932 432.571l-35.429-42.286q-4.571-5.143-12-6.286h-1.714q-7.429 0-12 4l-395.429 329.714-395.429-329.714q-6.857-4.571-13.714-4-7.429 1.143-12 6.286l-35.429 42.286q-4.571 5.714-4 13.429t6.286 12.286l410.857 342.286q18.286 14.857 43.429 14.857t43.429-14.857l139.429-116.571v111.429q0 8 5.143 13.143t13.143 5.143h109.714q8 0 13.143-5.143t5.143-13.143v-233.143l125.143-104q5.714-4.571 6.286-12.286t-4-13.429z" horiz-adv-x="951" />
<glyph unicode="&#xf017;" d="M512 649.143v-256q0-8-5.143-13.143t-13.143-5.143h-182.857q-8 0-13.143 5.143t-5.143 13.143v36.571q0 8 5.143 13.143t13.143 5.143h128v201.143q0 8 5.143 13.143t13.143 5.143h36.571q8 0 13.143-5.143t5.143-13.143zM749.714 448q0 84.571-41.714 156t-113.143 113.143-156 41.714-156-41.714-113.143-113.143-41.714-156 41.714-156 113.143-113.143 156-41.714 156 41.714 113.143 113.143 41.714 156zM877.714 448q0-119.429-58.857-220.286t-159.714-159.714-220.286-58.857-220.286 58.857-159.714 159.714-58.857 220.286 58.857 220.286 159.714 159.714 220.286 58.857 220.286-58.857 159.714-159.714 58.857-220.286z" />
<glyph unicode="&#xf041;" d="M438.857 594.286q0 60.571-42.857 103.429t-103.429 42.857-103.429-42.857-42.857-103.429 42.857-103.429 103.429-42.857 103.429 42.857 42.857 103.429zM585.143 594.286q0-62.286-18.857-102.286l-208-442.286q-9.143-18.857-27.143-29.714t-38.571-10.857-38.571 10.857-26.571 29.714l-208.571 442.286q-18.857 40-18.857 102.286 0 121.143 85.714 206.857t206.857 85.714 206.857-85.714 85.714-206.857z" horiz-adv-x="585" />
<glyph unicode="&#xf053;" d="M669.143 788l-303.429-303.429 303.429-303.429q10.857-10.857 10.857-25.714t-10.857-25.714l-94.857-94.857q-10.857-10.857-25.714-10.857t-25.714 10.857l-424 424q-10.857 10.857-10.857 25.714t10.857 25.714l424 424q10.857 10.857 25.714 10.857t25.714-10.857l94.857-94.857q10.857-10.857 10.857-25.714t-10.857-25.714z" horiz-adv-x="731" />
<glyph unicode="&#xf054;" d="M632.571 458.857l-424-424q-10.857-10.857-25.714-10.857t-25.714 10.857l-94.857 94.857q-10.857 10.857-10.857 25.714t10.857 25.714l303.429 303.429-303.429 303.429q-10.857 10.857-10.857 25.714t10.857 25.714l94.857 94.857q10.857 10.857 25.714 10.857t25.714-10.857l424-424q10.857-10.857 10.857-25.714t-10.857-25.714z" horiz-adv-x="731" />
<glyph unicode="&#xf067;" d="M804.571 539.429v-109.714q0-22.857-16-38.857t-38.857-16h-237.714v-237.714q0-22.857-16-38.857t-38.857-16h-109.714q-22.857 0-38.857 16t-16 38.857v237.714h-237.714q-22.857 0-38.857 16t-16 38.857v109.714q0 22.857 16 38.857t38.857 16h237.714v237.714q0 22.857 16 38.857t38.857 16h109.714q22.857 0 38.857-16t16-38.857v-237.714h237.714q22.857 0 38.857-16t16-38.857z" horiz-adv-x="805" />
<glyph unicode="&#xf068;" d="M804.571 539.429v-109.714q0-22.857-16-38.857t-38.857-16h-694.857q-22.857 0-38.857 16t-16 38.857v109.714q0 22.857 16 38.857t38.857 16h694.857q22.857 0 38.857-16t16-38.857z" horiz-adv-x="805" />
<glyph unicode="&#xf095;" d="M804.571 251.429q0-15.429-5.714-40.286t-12-39.143q-12-28.571-69.714-60.571-53.714-29.143-106.286-29.143-15.429 0-30 2t-32.857 7.143-27.143 8.286-31.714 11.714-28 10.286q-56 20-100 47.429-73.143 45.143-151.143 123.143t-123.143 151.143q-27.429 44-47.429 100-1.714 5.143-10.286 28t-11.714 31.714-8.286 27.143-7.143 32.857-2 30q0 52.571 29.143 106.286 32 57.714 60.571 69.714 14.286 6.286 39.143 12t40.286 5.714q8 0 12-1.714 10.286-3.429 30.286-43.429 6.286-10.857 17.143-30.857t20-36.286 17.714-30.571q1.714-2.286 10-14.286t12.286-20.286 4-16.286q0-11.429-16.286-28.571t-35.429-31.429-35.429-30.286-16.286-26.286q0-5.143 2.857-12.857t4.857-11.714 8-13.714 6.571-10.857q43.429-78.286 99.429-134.286t134.286-99.429q1.143-0.571 10.857-6.571t13.714-8 11.714-4.857 12.857-2.857q10.286 0 26.286 16.286t30.286 35.429 31.429 35.429 28.571 16.286q8 0 16.286-4t20.286-12.286 14.286-10q14.286-8.571 30.571-17.714t36.286-20 30.857-17.143q40-20 43.429-30.286 1.714-4 1.714-12z" horiz-adv-x="805" />
<glyph unicode="&#xf09a;" d="M548 953.143v-150.857h-89.714q-49.143 0-66.286-20.571t-17.143-61.714v-108h167.429l-22.286-169.143h-145.143v-433.714h-174.857v433.714h-145.714v169.143h145.714v124.571q0 106.286 59.429 164.857t158.286 58.571q84 0 130.286-6.857z" horiz-adv-x="585" />
<glyph unicode="&#xf0d5;" d="M420 505.143q0-20.571 18.286-40.286t44.286-38.857 51.714-42 44-59.429 18.286-81.143q0-51.429-27.429-98.857-41.143-69.714-120.571-102.571t-170.286-32.857q-75.429 0-140.857 23.714t-98 78.571q-21.143 34.286-21.143 74.857 0 46.286 25.429 85.714t67.714 65.714q74.857 46.857 230.857 57.143-18.286 24-27.143 42.286t-8.857 41.714q0 20.571 12 48.571-26.286-2.286-38.857-2.286-84.571 0-142.571 55.143t-58 139.714q0 46.857 20.571 90.857t56.571 74.857q44 37.714 104.286 56t124.286 18.286h238.857l-78.857-50.286h-74.857q42.286-36 64-76t21.714-91.429q0-41.143-14-74t-33.714-53.143-39.714-37.143-34-35.143-14-37.714zM336.571 560q21.714 0 44.571 9.429t37.714 24.857q30.286 32.571 30.286 90.857 0 33.143-9.714 71.429t-27.714 74-48.286 59.143-66.857 23.429q-24 0-47.143-11.143t-37.429-30q-26.857-33.714-26.857-91.429 0-26.286 5.714-55.714t18-58.857 29.714-52.857 42.857-38.286 55.143-14.857zM337.714 61.143q33.143 0 63.714 7.429t56.571 22.286 41.714 41.714 15.714 62.286q0 14.286-4 28t-8.286 24-15.429 23.714-16.857 20-22 19.714-20.857 16.571-23.714 17.143-20.857 14.857q-9.143 1.143-27.429 1.143-30.286 0-60-4t-61.429-14.286-55.429-26.286-39.143-42.571-15.429-60.286q0-40 20-70.571t52.286-47.429 68-25.143 72.857-8.286zM800.571 561.714h121.714v-61.714h-121.714v-125.143h-60v125.143h-121.143v61.714h121.143v124h60v-124z" horiz-adv-x="951" />
<glyph unicode="&#xf10b;" d="M265.143 155.429q0 18.857-13.429 32.286t-32.286 13.429-32.286-13.429-13.429-32.286 13.429-32.286 32.286-13.429 32.286 13.429 13.429 32.286zM384 246.857v402.286q0 7.429-5.429 12.857t-12.857 5.429h-292.571q-7.429 0-12.857-5.429t-5.429-12.857v-402.286q0-7.429 5.429-12.857t12.857-5.429h292.571q7.429 0 12.857 5.429t5.429 12.857zM274.286 731.429q0 9.143-9.143 9.143h-91.429q-9.143 0-9.143-9.143t9.143-9.143h91.429q9.143 0 9.143 9.143zM438.857 740.571v-585.143q0-29.714-21.714-51.429t-51.429-21.714h-292.571q-29.714 0-51.429 21.714t-21.714 51.429v585.143q0 29.714 21.714 51.429t51.429 21.714h292.571q29.714 0 51.429-21.714t21.714-51.429z" horiz-adv-x="439" />
<glyph unicode="&#xf10d;" d="M438.857 411.429v-219.429q0-45.714-32-77.714t-77.714-32h-219.429q-45.714 0-77.714 32t-32 77.714v402.286q0 59.429 23.143 113.429t62.571 93.429 93.429 62.571 113.429 23.143h36.571q14.857 0 25.714-10.857t10.857-25.714v-73.143q0-14.857-10.857-25.714t-25.714-10.857h-36.571q-60.571 0-103.429-42.857t-42.857-103.429v-18.286q0-22.857 16-38.857t38.857-16h128q45.714 0 77.714-32t32-77.714zM950.857 411.429v-219.429q0-45.714-32-77.714t-77.714-32h-219.429q-45.714 0-77.714 32t-32 77.714v402.286q0 59.429 23.143 113.429t62.571 93.429 93.429 62.571 113.429 23.143h36.571q14.857 0 25.714-10.857t10.857-25.714v-73.143q0-14.857-10.857-25.714t-25.714-10.857h-36.571q-60.571 0-103.429-42.857t-42.857-103.429v-18.286q0-22.857 16-38.857t38.857-16h128q45.714 0 77.714-32t32-77.714z" horiz-adv-x="951" />
<glyph unicode="&#xf10e;" d="M438.857 777.143v-402.286q0-59.429-23.143-113.429t-62.571-93.429-93.429-62.571-113.429-23.143h-36.571q-14.857 0-25.714 10.857t-10.857 25.714v73.143q0 14.857 10.857 25.714t25.714 10.857h36.571q60.571 0 103.429 42.857t42.857 103.429v18.286q0 22.857-16 38.857t-38.857 16h-128q-45.714 0-77.714 32t-32 77.714v219.429q0 45.714 32 77.714t77.714 32h219.429q45.714 0 77.714-32t32-77.714zM950.857 777.143v-402.286q0-59.429-23.143-113.429t-62.571-93.429-93.429-62.571-113.429-23.143h-36.571q-14.857 0-25.714 10.857t-10.857 25.714v73.143q0 14.857 10.857 25.714t25.714 10.857h36.571q60.571 0 103.429 42.857t42.857 103.429v18.286q0 22.857-16 38.857t-38.857 16h-128q-45.714 0-77.714 32t-32 77.714v219.429q0 45.714 32 77.714t77.714 32h219.429q45.714 0 77.714-32t32-77.714z" horiz-adv-x="951" />
<glyph unicode="&#xf1e4;" d="M256 210.286v-109.714q0-8-5.143-13.143t-13.143-5.143h-109.714q-8 0-13.143 5.143t-5.143 13.143v109.714q0 8 5.143 13.143t13.143 5.143h109.714q8 0 13.143-5.143t5.143-13.143zM146.286 429.714v-109.714q0-8-5.143-13.143t-13.143-5.143h-109.714q-8 0-13.143 5.143t-5.143 13.143v109.714q0 8 5.143 13.143t13.143 5.143h109.714q8 0 13.143-5.143t5.143-13.143zM475.429 210.286v-109.714q0-8-5.143-13.143t-13.143-5.143h-109.714q-8 0-13.143 5.143t-5.143 13.143v109.714q0 8 5.143 13.143t13.143 5.143h109.714q8 0 13.143-5.143t5.143-13.143zM365.714 429.714v-109.714q0-8-5.143-13.143t-13.143-5.143h-109.714q-8 0-13.143 5.143t-5.143 13.143v109.714q0 8 5.143 13.143t13.143 5.143h109.714q8 0 13.143-5.143t5.143-13.143zM37.714 521.143q-16 0-26.857 10.857t-10.857 26.286v73.714h293.714v-73.714q0-15.429-10.857-26.286t-26.286-10.857h-218.857zM694.857 210.286v-109.714q0-8-5.143-13.143t-13.143-5.143h-109.714q-8 0-13.143 5.143t-5.143 13.143v109.714q0 8 5.143 13.143t13.143 5.143h109.714q8 0 13.143-5.143t5.143-13.143zM585.143 429.714v-109.714q0-8-5.143-13.143t-13.143-5.143h-109.714q-8 0-13.143 5.143t-5.143 13.143v109.714q0 8 5.143 13.143t13.143 5.143h109.714q8 0 13.143-5.143t5.143-13.143zM914.286 210.286v-109.714q0-8-5.143-13.143t-13.143-5.143h-109.714q-8 0-13.143 5.143t-5.143 13.143v109.714q0 8 5.143 13.143t13.143 5.143h109.714q8 0 13.143-5.143t5.143-13.143zM804.571 429.714v-109.714q0-8-5.143-13.143t-13.143-5.143h-109.714q-8 0-13.143 5.143t-5.143 13.143v109.714q0 8 5.143 13.143t13.143 5.143h109.714q8 0 13.143-5.143t5.143-13.143zM1024 662.857v-7.429h-293.714v5.714q0 59.429-218.286 58.286-218.286-0.571-218.286-58.286v-5.714h-293.714v7.429q0 9.714 4.857 24.571t19.429 36.571 37.429 43.143 63.143 43.429 91.429 38.571 128 27.143 167.714 10.571 167.429-10.571 128-27.143 91.714-38.571 63.143-43.429 37.429-43.143 19.429-36.571 4.857-24.571zM1024 429.714v-109.714q0-8-5.143-13.143t-13.143-5.143h-109.714q-8 0-13.143 5.143t-5.143 13.143v109.714q0 8 5.143 13.143t13.143 5.143h109.714q8 0 13.143-5.143t5.143-13.143zM1024 632v-73.714q0-15.429-10.857-26.286t-26.286-10.857h-219.429q-15.429 0-26.286 10.857t-10.857 26.286v73.714h293.714z" />
</font>
</defs>
</svg>
